<?xml version="1.0" encoding="UTF-8"?>
<?xml-stylesheet type="text/css" href="coa.css" ?>
<svg xmlns="http://www.w3.org/2000/svg" id="wa_state_crest" viewBox="0 0 250 182.6">
<title>WA State Coat of Arms</title>
  <style> 
    <![CDATA[<!--<!--
		.st1{fill:var(--coa-bg-color);stroke:var(--coa-stroke-color);}
		.st2{fill:var(--coa-bg-color);fill-rule:evenodd;clip-rule:evenodd}
		.st3{fill:none;stroke:var(--coa-bg-color);stroke-width:1.78}
		.st5{fill:none;stroke:var(--coa-stroke-color);stroke-width:.45}
		.st6{fill:none;stroke:var(--coa-bg-color);stroke-width:.67}
		.st7{fill:none;stroke:var(--coa-bg-color);stroke-width:.45;stroke-miterlimit:5}
		]]>
  </style>
  <defs>
    <path id="SVGID_1_" d="M0 0h250v182.6H0z"/>
  </defs>
  <clipPath id="SVGID_2_">
    <use href="#SVGID_1_" style="overflow:visible"/>
  </clipPath>
  <g style="clip-path:url(#SVGID_2_)">
    <path d="M3.2 175c-.2.1-.3.2-.1.4.3.3.6.5.9.6h-.4l.6.1c1.5.4 3.1.5 4.7.3.6 0 1.2-.1 1.8-.1 3.1 0 6.8 0 9.8.1 5.7.1 11.5.3 16.8.8.2-.3.2-.7.6-.8.7-.1 1.4 0 2.1.1 2.2.4 4.7 1.1 7 .8.1-.1-.5-.3-.6-.5.7-.1 1.2-.4 1.8-.4 2.3-.2 4.6.9 6.8 1 1 0 2.4-.2 3.3-.3s2.2 0 3.2 0h.8c.3-.1.5-.4.8-.5h1.4c3.2 0 6.5.2 9.4.4 5.4.4 10.8.3 16.1-.1 1.7-.2 3.5-.3 5.2-.1 3.4.3 6.6 1.2 9.8 1.4.1-.1-.1-.2-.2-.3-.3-.3-.8-.6-1-.9 5.2 1 9.9 1 15 1.6 1.7.2 4 .5 6.2.7v2.9h-14.9c-8.2.1-15.9.4-24.7.1-5.4-.2-10.5-.3-15.8-.6-7.8-.4-15.9-1-23.6-1.2-15.3-.5-31.6-1.1-45.3-3.7-.3-.3-.7-.5-.7-1s.5-.7.7-1l2.3-1 .2 1.2zM92.5 167c-.8-.6-1.6-1.1-2.5-1.6l9.5.3c.8 0 1.6.1 2.4.1s3.9 0 4.6.1c2.1 1.8 7.5 5.4 18.2 10.8-1.1-.1-2.2-.2-3.3-.4-8.3-1.3-16.3-3.8-23.8-7.5-1.3-.7-2.7-1.1-4.1-1.2-.4-.2-.7-.4-1-.6z" class="st1"/>
    <path d="M246.8 175c.2.1.3.2.1.4-.3.3-.6.5-1 .6h.4l-.6.1c-1.5.4-3.1.5-4.7.3-.6 0-1.2-.1-1.8-.1-3.1 0-6.8 0-9.8.1-5.7.1-11.5.3-16.8.8-.2-.3-.2-.7-.5-.8-.7-.1-1.4 0-2.1.1-2.2.4-4.7 1.1-7 .8-.1-.1.5-.3.5-.5-.7-.1-1.2-.4-1.8-.4-2.3-.2-4.6.9-6.8 1-1 0-2.4-.2-3.3-.3s-2.2 0-3.2 0h-.8c-.3-.1-.5-.4-.8-.5h-1.4c-3.2 0-6.5.2-9.4.4-5.4.4-10.8.3-16.1-.1-1.7-.2-3.5-.3-5.2-.1-3.4.3-6.6 1.2-9.8 1.4-.1-.1.1-.2.2-.3.3-.3.8-.6 1-.9-5.2 1-9.9 1-15 1.6-1.7.2-4.1.5-6.3.7-.4 1.5-.4 2.6 0 2.9h14.9c8.2.1 15.9.4 24.7.1 5.4-.2 10.5-.3 15.8-.6 7.8-.4 15.9-1 23.6-1.2 15.3-.5 31.6-1.1 45.3-3.7.3-.3.7-.5.7-1s-.5-.7-.7-1l-2.3-1v1.2z" class="st1"/>
  </g>
  <path d="M157.5 167c.8-.6 1.6-1.1 2.5-1.6l-9.5.3c-.8 0-1.6.1-2.4.1s-3.9 0-4.6.1c-2.1 1.8-7.5 5.4-18.2 10.8 1.1-.1 2.2-.2 3.3-.4 8.3-1.3 16.3-3.8 23.8-7.5 1.3-.7 2.7-1.1 4.1-1.2.4-.2.7-.4 1-.6z" class="st1"/>
  <path d="M109 81.8c0 .2-.2.4-.4.4s-.3-.2-.3-.4.1-.3.3-.3c.2-.1.4.1.4.3z" class="st2"/>
  <path d="m150 132.1-1 .3c-.1 0-.1-.1-.2-.2-2.6.2-5.1.8-7.6 1.6-1 .3-2 .5-3 .5-4.4 0-7.9-2.9-13.3-2.9-5.3 0-8.8 2.8-13.2 2.9-1 0-2-.2-3-.5-2.5-.9-5.1-1.4-7.7-1.6.1.3.2.6.3.8s.5.5.9.5c1.4.3 2.8.6 4.1 1.1 1.4.3 2.9.5 4.3.5 1.1.1 2.1.1 3.2 0l2.4-.3c.7-.2 1.3-.4 1.9-.5 1.3-.3 2.6-.7 3.9-1 1.4-.4 2.8-.6 4.3-.7.8-.1 1.6 0 2.3.1 1.3.2 2.6.4 3.8.7.6.2 1.1.4 1.7.6 2.1.6 4.3.8 6.5.6 2.5-.2 4.9-.7 7.3-1.5 1.2-.4 2.4-.8 3.7-1H150zm7.3-8.9c-.4.6-.9 1.2-1.4 1.7-.2.3.1-.2.2-.3l.6-1.2c0-.1 0-.4.1-.4s.7-.5.8-.5c-.1.2-.2.4-.3.7zm-3.1 0c-.1.5-.3.9-.6 1.2-.4.4-.8.8-1.3 1.1-.1 0 .1-.1.1-.1.6-1 1.3-2 2-3 .3-.2-.2.7-.2.8zm-4.1-3.1c-.2.4-.4.8-.8 1.1-.1 0-.3.1-.4 0-.1 0 .4-.6.5-.7.3-.4.6-.9.9-1.3 0 0 0-.1 0 0-.1.3-.2.6-.2.9zm-1.1 4.2c-.6.4-1.3.6-2 .8l-1.1.3c-.1 0 .4-.5.4-.6.5-.6 1.1-1.4 1.4-1.9 0-.1.4-.3.3-.5s-.7 0-.9 0c-.9.2-1.7.5-2.5.9-.2.1-.1-.3 0-.4.5-.3 1-.6 1.6-.8.2-.1.4-.1.7-.1.5-.1 1.1-.2 1.6-.2.2 0 .2 0 0 .3-.3.5-.6 1-1 1.5-.1.1-.5.4-.4.5s.5.1.7.1c.6-.2 1.3-.4 1.9-.6.3.1-.6.6-.7.7zm.7 2c-.2.3-.5.5-.9.7-.7.1-1.4.2-2.1.2-.5.1-.3.2.1.3h1.5c.1 0-.4.4-.5.4-.8.1-1.7.1-2.5.1-.7 0 .3.3.5.4s1.2.1.9.2c-.4.2-.9.3-1.4.3-.9-.1-1.7 0-2.6.2-.4.1-.6.4-1 .7-.9.4-1.9.4-2.8.1-.6-.3-1.2-.5-1.9-.4 1-.4 2-.8 2.9-1.4.6-.4 1.4-.6 2.1-.6.2 0 .3.2.5.2s.2-.2.3-.2c.9-.6 1.9-.9 3-1 1.3-.1 2.8.1 3.9-.2-.1 0 .1-.2 0 0zm-13.8-4c0-.1.5-.3.6-.3h.5c.6 0 1.3 0 1.5.5.1.3-.1.5-.3.6 0 0-.3.3-.3.2v-.4c-.2-.6-1.2-.3-1.7-.5 0 .1-.1 0-.3-.1zm-.3 2c-.1.1 0-.5-.1-.7s-.6-.5-1-.4-.2.1-.4-.1-.4-.2-.4-.3.6-.3.6-.3c1.6-.3 2.2 1 1.3 1.8zm-2 .2c-.1 0-.2-.5-.1-.4-.2-.3-.5-.5-.9-.5-.3 0-.6.2-.7.1l-.4-.4c.2-.1.4-.1.6-.2.2-.1.4-.1.5-.2.7-.1 1.3.2 1.3 1-.1.2-.2.5-.3.6zm-2.5.4c-.2.3-.1.1-.2-.2-.1-.6-1-.6-1.5-.4-.3.1-.6.5-.9.5l-.5-.1.2-.2c.6-.5 1.3-.8 2-.9 1-.1 1.4.6.9 1.3zm-2.6 1.6c-.1 0-.6-.5-.7-.5-.9-.2-1.7.7-2.1.7l-.5-.1c.1-.2.3-.4.4-.6.6-.5 1.4-.7 2.1-.8.4 0 1 .1 1 .6 0 .1-.1.7-.2.7zM126 128s-.8-.3-.9-.3c-.7 0-1.4.2-2 .5-.3.1.4-.5.4-.6.3-.2.6-.4 1-.4.5-.1 1 .1 1.4.4 0 .1.1.4.1.4zm-3.1-3.3c0-.2.9-.3 1.2-.4.5-.1 1 .1 1.4.5.1.2.3.8-.1.5-.4-.4-.9-.5-1.5-.4-.4.1-.5.3-.8 0 0 0-.2-.1-.2-.2zm5-.8c-.1.1-.1.2-.1-.1 0-.4-.3-.7-.6-.9-.5-.1-.8.2-1.2.1 0 0-.6-.3-.6-.4s.8-.3.9-.4c.9-.1 2 .7 1.6 1.7zm1-2.6c-.6 0-.8.5-1.4.5-.5 0-.6 0-.4-.2.4-.5 1-.8 1.7-.9 1.1-.1 1.9.6 1.5 1.6 0 .1-.2.5-.2.5v-.3c.1-.5-.2-1.1-.8-1.2h-.4zm2.5-.9c-.5 0-.6.4-1.2.2-.1 0-.3 0-.3-.1s.8-.6.9-.6h.5c1.2-.1 2.2.8 1.6 1.8 0 0-.2.5-.3.4s.1-.6.1-.5c0-.6-.6-1.1-1.2-1.1 0-.1-.1 0-.1-.1zm-8.7 5.8c-.1-.1-.1-.2-.2-.4-.7-.7-1.9.3-2.4.5-.2.1-.6.3-.5 0 .6-1.4 1.2-2.9 2.5-3.6.3-.2.7-.1 1-.3s.4-.7.5-.9c.3-.5.8-.9 1.4-1.1.3-.1.3-.1.4-.3.5-.7 1.1-1.3 1.9-1.6.4-.1.9 0 1.3-.1.2-.1.5-.6.6-.7.6-.4 1.3-.6 2-.7.7-.1 1.5.1 2.1.5.2.1.6.6.5.8s-.8-.4-.9-.5c-.9-.2-1.8-.2-2.6.1-.3.1-.8.3-.8.5.3.3.5.6.8.9-.2.1-.9-.3-1.1-.3-.8-.1-1.6.1-2.2.5-.1.1-.7.5-.7.6.3.2.7.4 1 .5.1 0 .2.1.3.1 0 .2-.7 0-.9 0-.9.1-1.7.4-2.3 1-.1.2-.3.3-.4.5.1.1.1 0 .3 0 .2.1.5.3.6.5 0 0 .2.3.1.4s-.4-.1-.5-.1c-1-.1-2.1.2-2.8.9-.3.2-1.2.8-.6 1 .2 0 .4-.1.7 0s.8.3.9.6.2.7 0 .7zm-1 2.1c-.1.1-.2.1-.4.2-.1 0-.1-.5-.2-.6-.3-.5-1.4-.6-2-.2.4-.6 1.9-.9 2.5-.2.1 0 .3.5.1.8zm-3.4-2.6c-.2.2-.5.3-.8.4-.3-.1.1-1.2.1-1.3s.1.4.3.5.8-.4 1.1-.6.7-.6.9-.5c0 0-.7 1-.8 1.1s-.6.2-.8.4zm.4-2.3c.1-.5.3-1 .6-1.5 0 .3-.3 1.2-.1 1.4s.5-.1.7-.2c.5-.2 1.1-.5 1.7-.8s-.3.4-.5.5c-.6.4-1.3.8-2 1.2 0 0-.4.2-.5.2 0-.3.1-.5.1-.8zm1.5-2c.2-.6.6-1.2 1.1-1.6.1-.1-.2.5-.3.7s-.4.9-.1 1 1.2-.5 1.4-.6c.6-.3 1-.5 1.5-.8-.7.8-1.6 1.3-2.6 1.6-.2.1-.9.5-1.1.3.1-.2.1-.4.1-.6zm2.1-2.4c.1-.2.1-.4.3-.6.1-.2.7-.6.8-.6s-.9 1.4-.1 1.2c.5-.2 1.1-.5 1.6-.7.2-.1.7-.3.4-.1a7.24 7.24 0 0 1-3 1.4v-.6zm2.6-2c.3-.4.8-.8 1.2-1.1.1 0-.5.6-.4.8s1.2.1 1.5 0c.1 0 .4-.2.5-.1s-.3.3-.3.3c-.6.2-1.1.4-1.7.5-.2 0-1 .2-1.1.1s.2-.4.3-.5zm3.5-1.6c.2-.2.8-.8 1-.8.5 0-.8.7 0 .7.2 0 1 .3 1.4.3.2 0-.3.1-.5.1h-1.5c-.5.1-.8.1-.4-.3zm3-.9c1.8-.7 3.8-.9 5.8-.5-.6 0-1.3.6-2.1.4-.1 0-.1-.2-.3-.2-.6-.2-1.2.3-1.8.3h-1.8s1-.4.2 0zm2.7-2c.1-.3.2-.6.2-.9 0 0-.1-.2 0-.3s.4.5.4.8c0 .3-.1.6-.2.9-.2.1-.4.1-.6 0-.1 0 .2-.4.2-.5zm3.7 2.8-2 .6c-.9.4-1.8.5-2.7.4 1.5-.7 3.1-1 4.7-1zm.5-1.9c.5-.5.8-1.2.9-1.9 0-.1-.1-.4 0-.5.2.5.2 1 .2 1.5-.1.5-.6 1.4-.9 1.5-.1 0-.6 0-.6-.1s.4-.5.4-.5zm-2.5 6.9c0 .4-.1 1-.3.5-.1-.4-.5-.8-.9-.8s-.7.2-.9.2-.3-.3-.3-.4 1-.3 1.3-.3c.6-.1 1.1.1 1.1.8zm-1-2.9c-.5-.1-.9-.2-1.4-.4-.4-.2-.1-.2.3-.3.8-.1 1.7.2 2.2.9.1.2.2.4.3.7l-.3-.2c-.2-.3-.6-.5-1.1-.7zm3.3.1c-.6-.4-1.2-.7-1.9-.9-.2-.1.1-.1.3-.1.4 0 .7 0 1.1.1.4.2.7.5.9.9v.5s-.3-.5-.4-.5zm-.3 3.4c-.1-.1 0-.1 0-.3.1-.7-.2-1.4-.9-1.5h-.4c-.1 0 .1-.5.1-.5h.4c1.3 0 1.4.9 1 1.9 0 .1-.1.2-.1.3.1 0 0 .2-.1.1zm2.9-4.1c.2.2.4 1 .1.6-.5-.5-1.2-.7-1.8-.5l-.6-.3c0-.1.8-.2 1-.2.5-.2 1 0 1.3.4zm-.8 1.2c-.1-.1-.4-.1-.1-.2.3 0 .6 0 .9.2.6.6.2 2.3-.3 2.7-.2.2 0-.4.1-.7-.1-.7-.2-1.4-.6-2zm.3 4.6c-.2-.2-.5-.4-.8-.4-.1 0-.2.1-.3.1s-.3-.4-.2-.4c.3-.4 1.9.1 2.1.4.4.5-.4 1.1-.7 1.3l-.1.1c-.2-.3.3-.6 0-1.1zm1.3-8.3c.3-.2.6-.5.8-.8 0-.1 0-.2.1-.3-.1.5-.3 1-.5 1.5-.2.3-.6.8-.8.8 0 0-.5-.4-.5-.5s.7-.6.9-.7zm1.4 3c.4-.4.9-1 1.2-1.4-.1.4-.3.8-.6 1.1-.1.3-.4 1-.7 1-.1 0-.3-.3-.3-.4s.3-.2.4-.3zm.5 6.4c-.2.2-.1-.4-.2-.6-.2-.3-.6-.5-.9-.5-.1 0-.6.1-.6-.2s.5-.2.5-.2c.4-.1.9 0 1.3.3s.3.8-.1 1.2zm1.6-4.4c-.3.3-.6.6-.9 1-.1.3-.3.5-.4.8h-.8s.4-.5.5-.6c.1-.2.3-.4.5-.5.2-.4.6-.7 1.1-.7zm.2-1.5c.3-.4.6-.9.9-1.4-.1.7-.3 2.1-.9 2.2-.2 0-.4 0-.5-.1-.1-.1.5-.7.5-.7zm1.5 1.5c.2 0 .4 0 .6.1.1.1.2.9 0 1s-.4-.3-.5-.3c-.4 0-1.1.5-1.4.7-.1.1-.4.3-.4.3s.3-.7.4-.8c.2-.5.7-.8 1.3-1zm-37.8-36.7c-.5.1-.9-.2-1.1-.7-.1-.5.2-.9.7-1.1.5-.1.9.2 1.1.7 0 .5-.3 1-.7 1.1zm-5.2 5.1c-.1 0-.5-.7-.7-.9l-.2-.2c-.1-.1.7-.6.9-.6s1 .8 1 1c-.3.3-.6.6-1 .7zm55.1 32.5s-.1-.4-.2-.4-.6.7-.6.8c-.7.9-1.5 1.6-2.4 2.2.1 0-.2.2-.3.2s.1-.6.2-.8c0-.3.1-.6.1-.8s.1-1.1-.1-1.2-.4.5-.5.7c-.2.2-.4.3-.6.4-.1.1-.6.4-.6.3s.1-.5.2-.7c.1-.6 0-1.1-.2-1.7-.1-.4-.3-.7-.5-1 0 0-.3-.2-.4-.2s-.1.4-.1.5c-.3.6-.6 1-1 1.5-.2.3 0-.5 0-.7 0-1.2-.5-2.4-1.4-3.2-.4-.4-.2-.1-.3.3-.1.8-.4 1.5-.9 2.1 0 0-.2.3-.2.2v-.9c0-.3-.1-.6-.2-.9 0-.1-.4-.7-.5-.6s-.1.4-.1.4-.3.5-.4.5 0-.4 0-.5a4.2 4.2 0 0 0-1.4-2.8c-.2-.2-.6-.9-.9-.7s-.1.6-.1.8c0 .2-.1.4-.1.6 0 .1-.1.6-.2.4-.1-.3-.4-.5-.7-.5-.2 0-.5.1-.7.2 0 0 .2-.8.3-.9.1-1-.2-2-.9-2.8-.2-.2-.4-.4-.7-.6-.1.2-.2.4-.3.7-.2.5-.4.9-.6 1.3 0 0-.3.6-.4.5s0-.7 0-.9c-.3-1.4-1.4-2.5-2.8-2.8-.1 0-.5-.1-.6 0s.3.5.3.6c.2.8-.2 1.7-.8 2.2 0 0-.5.3-.7.2s-.1-.4-.2-.5c-.6-1-1.8-1.6-3-1.6 0 0-.4 0-.4.1s.4.2.4.3c.6.6-.4 1.7-.7 1.9-.9.5-1.8.9-2.8 1.2-2.9.8-5.5 2.2-7.7 4.2-2 2-3.8 4.3-5.2 6.8-1 1.7-2.2 3.8-4.9 3.2-1.7-.4-3-2-3-3.8 0-1.7.3-3.5.9-5.1 1.1-4 2.4-7.8 3.5-11.6s2.1-9 2.7-11.6c2.1-10.1-.2-14.1-1.4-15.7-.7-.9-1.8-1.5-3-1.6-2.3-.1-4.4 1.2-5.3 3.3-.1.2-.3.5-.4.8 0 .2.5.3.6.4.5.5.1 1 .2 1.8.1.3.2.6.4.9-.1 0-.3-.4-.4-.5-.2-.5-.1-1.3-.2-1.7-.1-.2-.4-.7-.6-.6s-.2.4-.3.5c-.5.7-1.1 1.3-1.8 1.8-1.1.7-2.2 1.2-2.4 2.6 0 .2 0 .8.1.9s.3-.2.6-.3a24.08 24.08 0 0 0 4.1-1.8c.6-.4 1.3-.7 2-.8.7 0 1.4-.1 2-.3.5-.2 1-.4 1.4-.6.6-.1 1 .7 1.1 1.1.1.5.2 1.1.2 1.6 0 .8-.1 1.7-.2 2.5s-.2 1.6-.4 2.4c-1.6 8.2-4.3 16.2-8.1 23.7-1.5 3-3.4 6-3.9 10-.2 1.6-.1 3.2.2 4.8 2.8.2 5.5.8 8.2 1.7.9.3 1.8.5 2.8.5 4 0 7.5-2.8 13.2-2.9 5.7 0 9.3 2.9 13.2 2.9.9 0 1.9-.2 2.8-.5 2.3-.8 4.7-1.3 7.1-1.6-.2-.2-.5-.3-.8-.4-.5 0-.9.1-1.4.3-.6.1-1.1 0-1.8.1l1-.6.9-.6c.8-.3 3-.1 3.5.4.2.2.3.4.4.6h.7c1.1 0 2.2.1 3.3.3l.1-.1c.5-.4.9-.8 1.4-1.2.5-.5 1-1.1 1.4-1.7.4-.7.7-1.4 1-2.1.2-.5.6-.9.8-1.4.2-.5.4-1.1.6-1.6.1-.7 0-1.7-.2-2.8z" class="st2"/>
  <path d="M89.1 135.4c2.7-1.6 7.5-5.7 19.9-1.5 2.1.6 4.3.5 6.3-.2 5.3-1.6 9-3.3 15.4-1.2 7 2.3 7.5 2.4 13 .6.7-.2 9.9-2.9 16.9 2.2.3.2-2.8 6.5-3 6.8s-5-4.5-16.8-.7c-2.5.8-3.8 1-8.6-.6-3.4-1.1-6.4-2.4-12.6-.6-1.9.5-6.5 2.9-10.6 1.2-3.5-1.2-7.2-1.6-10.8-1.3-3.4.3-5.8 2.3-6 2.1s-1.6-3.4-1.8-3.8l-1.3-3zM96.1 148.6c.2-.1 3.8-2.6 13.5 0 .5.1 3 2 7.8.1 4-1.5 7.4-2.7 13.3-.7 1.3.5 5.4 2.5 9.3.8 3.5-1.6 10.2-2 13.8-.4.1.1-9.2 15.3-28.9 27-.2.1-17.6-10.3-27.4-24.7-.3-.5-1.4-2.1-1.4-2.1z" class="st1"/>
  <path d="M167.2 87.7v11.5c0 48.1-27.9 67.3-42.3 76.3-14.4-9-42.3-28.3-42.3-76.3V87.3" class="st3"/>
  <path d="M166.3 83.9v-1.8h1.8v1c-.2.1-.4.1-.5.2-.4.3-.8.5-1.3.6z" class="st1"/>
  <path d="M82.6 80.4V68.9h84.6v11" class="st3"/>
  <path d="m82 83.2-.3-.6v-.5h1.8v1.7c0 .2-.6-.4-.9-.4l-.6-.2z" class="st1"/>
  <path d="M153.9 148.5c-2.5-1-7.2-1.9-15 .7-4.8 1.6-8.2-2.2-14-2.2s-9 3.8-13.8 2.2c-8-2.7-12.7-1.6-15.1-.6m61.6-6.5c-2.3-1.5-7.7-3.9-17.4-.7-5.3 1.8-8.9-2.2-15.2-2.2s-10 4-15.3 2.2c-9.8-3.3-15.1-.8-17.4.7" style="fill:none;stroke:#fff;stroke-width:.58;stroke-miterlimit:5"/>
  <path d="M66.6 61.9c0 .1-.1 0 0 0z" class="st2"/>
  <path d="M48.8 32.5v-.3h.1s0 .1-.1.3zM62 39.8c-.1 0-.1 0 0 0zM61.2 72.8v-.2h.1v.2h-.1zM73 84c-.1 0-.2-.1-.3-.1 0 0-.1 0-.1-.1 0 0 0-.1.1-.1s.2 0 .3.1c.1.1.1.1 0 .2zM80 82.8s0-.1 0 0l.1-.1h.1v.1H80zM79.9 81.2c.1-.1.1 0 .1-.1m.1 0c0 .1-.1.1-.2.1l.2-.1zM78.5 80.2c.1 0 .1-.1.2-.1m.1.1c-.1 0-.1.1-.2.1l.2-.1zM65.4 74.6zM72.1 165.9l-.1-.1h.2s.1 0 .1.1c0 0 0 .1-.1.1l-.1-.1zM80.7 166.2h.2-.2zM80.3 165.4h-.2v-.1h.2s.1 0 0 .1c0-.1 0-.1 0 0zM66.1 138.4s0-.1 0 0v-.2.2c0-.1 0-.1 0 0zM66.4 114.8v-.3h.1m0 0v.2m-.1.1zM60.7 169.8c0-.1 0-.1 0 0l.2-.1h.1v.1h-.3zM48.5 132.5s-.1 0 0 0c-.1-.1 0-.1 0-.1h.2s0 .1-.1.1h-.1z" class="st1"/>
  <path d="M23.7 174.7c.1-.1.1 0 .1 0s0 .1-.1 0zM23.5 174.7c.1-.1.1-.1.1 0s0 .1-.1 0c0 .1 0 .1 0 0z"/>
  <path d="M84.6 55.7c-.4.3-.8.5-1.2.7-.1 0 .7-.7.5-.5.3-.4.7-.6 1.2-.8 1-.4 1.6-.8 2.4-1-1 .6-1.9 1.1-2.9 1.6zM79 59.1c-.6.4-1.3.9-1.9 1.4-.5.5-1 1-1.4 1.6-.8 1.4-1.2 2.9-1.2 4.5.2 3.9 1.8 7.2 3.3 10.4.2.4.5.9.6 1.3-.2.4-.6-.1-.6-.2-1-1.4-1.9-2.9-2.6-4.5-.9-1.9-1.6-4-2-6.1-.4-2.2.1-4.4 1.5-6.2 1.2-1.2 2.5-2.2 4-3 1.5-.9 2.8-1.6 4.2-2.3.3-.1.7-.4.6-.4-.5.5-1 .9-1.5 1.3-1 .9-2 1.6-3 2.2zm.6 19.5s-.6 1.5-.9 1.6v.1l1.8-.6c.3-.1 1-.5 1.1-.3s-.5.9-.7 1c-.4.4-.8.4-1 .7h.1c.9.1 2.6-.7 3.5-.4.3.2.5.5.7.7-.5.2-1.1.3-1.6.4-.9.2-1.8.5-2.6.9v.1c1.3.2 2.8.7 3.4 1.6.1.2.6.9.2.6-.8-.5-1.7-.8-2.6-1 0 0-1.7-.3-1.7-.2s.3.3.2.2c.6.3 1.2.6 1.7 1 .3.3.5.5.7.8 0 .1-.5.4-.6.4-.7.1-1.4-1-1.9-1.3-1.3-.6-2.7-.9-4.2-.8-2.1 0-4.6.1-6.9.1-1.9-.1-3.6-.3-5.4-.4-2-.1-4-.4-5.8-.5-.8.1-1.6.1-2.3-.1-1.7-.7-1.5-3-1.6-4.9-.2-2.3-.4-4.2-.7-6.5.3.7.6 1.5.8 2.2.3.6.8 1.1 1.1 1.7.2.8.3 1.7.1 2.5 0 1.9.2 3.7 2 4h.4c.1 0 .4.2.6.3h2.1c.8.1 1.6.3 2.4.3l2 .3c2.9.4 5.8.7 8.7.9v-.1l.1-.1c-1.1-.2-2.2-.5-3.2-.9-.9-.3-1.9-.2-2.8-.5-.6-.2-1.1-.4-1.7-.5-.2 0-.4-.1-.6-.2-1.4-.4-3.3-.3-4.6-.8-.8-.4-1.6-.9-2.4-1.4-.1 0-.2 0-.3-.1-.5-.5-.9-1-1.2-1.7-.2-.8-.1-1.6.3-2.3.3-.3.9-.4 1.3-.5 1.1-.5 1.8-1.6 1.9-2.9 0-.3-.2-1.1 0-1.3s1 .3 1.2.5c.4.4.3 1.2.6 1.5h.2c0-.6-.1-1.2-.3-1.8 0-.5-.1-1.1-.1-1.6-.1-.3-.2-.5-.4-.7-.2-.2-.5-.3-.6-.5s.1-.9 0-1.5c0-.4-.1-.7-.4-1-.2-.2-.5-.4-.6-.6-.1-.2-.1-.5-.1-.7-.1-.4-.3-1.1-.4-1.6s.3-.1.4.1c.7.6 1.2 1.5 1.4 2.4.2.5.5 1.1.7 1.7.1.3.5.7.4.1-.1-.4-.1-1-.1-1.4l.3-2.8c-.1-.9-.7-1.3-.5-2.3.1-.5.5-.8.4-1.5s-.6-1.4-.7-2.3v-.8c-.2-1.3-.2-2.5 0-3.8.1-.6.2.5.2.7.3 2.1 1.3 4.8 2.6 6 1.1 1 2.1 2 3 3.3 1.8 2.3 2.8 5.3 3.9 8 .4 1.3.7 2.6.7 4-.1 1.5-.4 3-.9 4.4 0 .1-.2 1-.3 1s-.7-.7-.7-.8c-.1-.5-.1-.9 0-1.4.1-1.7 0-3.4-.4-5-.5-1.9-1.3-3.8-2.3-5.5-.2-.3-.5-1.1-.8-1s.3.7.3.8c1.6 2.9 2.4 6.2 2.3 9.6 0 .4 0 .8-.1 1.2-.2.2-.9-.4-1.1-.5-.6-.7-1.2-1.3-1.7-2.1-.1.7.3 3.1-.5 3.3-.3.1-.7-.3-.9-.3s-.7-.2-1-.3c-.9-.1-.6-.3-1-.9-.1-.2-.3-.2-.4-.4s0-.3-.1-.4c-.3-.6-.9-.9-.9-1.3s.1-.4 0-.7l-.6-1.2c-.3 0-.4 1-.4 1.3a9.86 9.86 0 0 0-.2 3.7c.1.2.9.2 1.3.3.9.2 1.8.5 2.6.8a56.58 56.58 0 0 0 9 2c1.3.1 2.6.1 3.9-.1.6-.2 1.1-.6 1.6-1 .2-.2 1.3-1.1 1.6-1zm-10.7 8.2c-.3 1.6-.5 3.6-.6 5.4-.3 4.1-.3 8.3-.7 12.3-.4 3.5-.7 6.7-1.2 10h.1v.1c.7-2.4 1.2-4.8 1.4-7.3 0-.4.1-.7.2-1.1a18.43 18.43 0 0 1 1.7 5.7c.4 2.6.6 5.3.5 7.9 0 1.9-.2 3.7-.7 5.5-.3 1.1-.9 2.1-1.2 3-.4 1.6-1.3 2.9-1.7 4.6-.3 1.7-.6 3.4-.7 5.1h.1v.1H66c-.7 5.6-1.4 10.9-2 16.3-.2 1.3-.2 2.6-.2 3.9 0 1.2.7 2.3 1.8 2.8 4.9 2.6 12.3 2.4 18.2 3.6l-3.5.3v.2c1.3.3 3.1 0 4.3.4a15 15 0 0 0-3.7.4h.1-.1c.4.1 1.3.5 1.1.8 0 0-.7.2-.8.3-1.7.2-3.4.1-5-.3-3.2-.5-6.4-.6-9.6-.4-1.8.2-3.4-.1-4.9.1h-.8c-.1 0-.6.2-.8.1-.4-.5-.6-1.1-.5-1.7.2-.2.4-.3.6-.3.1 0 .1.6.1.7.2.3.5.5.9.5.8 0 1.6-.5 2.4-.5 2.8-.3 5.9.6 8.5.5v-.1l.1-.1c-2.7-.6-5.4-.9-8.2-1-.4 0-2 0-2.2-.3s.3-1.1.3-1.4v-.3c0-.1 0-.2-.1-.4-.1-1.1-.2-2.2-.1-3.3.2-5.1.3-10 .7-15.2.1-2 .4-3.7.5-5.8.1-1 .4-2.1.8-3 .2-.5.3-1 .5-1.5.9-3.2 1.5-6.5 1.7-9.9.2-3 .2-7.2-.9-9.8l-.3-.6c-.6-1.8-1.5-3.6-2.7-5.1-.4-.6-.7-1.2-1.1-1.9s-1.1-1.3-1.6-2c-.4-.7-1-1.4-1.6-1.9-.9-.5-1.9-.7-2.9-.7-1-.1-2.1-.7-3.3-.8-.4 0-.8 0-1.2.1-.3 0-1.4.3-1 .1 1.8-.8 3.8-.9 5.6-.2.6.2 1.4.3 2.1.4 1.8.4 2.6 1.6 3.5 2.8.2.2.7.9.8.9.3 0 .4-1 .4-1.4-.1-2-2.2-3.2-2.9-4.7-.3-.8.4-.7 1-.5 1.1.4 3.1.8 3.1-.7 0-.4-.3-.7-.3-1 0-.4.2-.7.5-.9.2-.1.5 0 .7-.1 2.4-1.1 1.8-5.3 2.3-8.3.1-.9.3-1.6.5-2.4 0-.2.9-.1 1.2-.1h1.2c0 .6-.1 1.2-.2 1.8l-.1.3zm-6.4 82.6c1.4.3 2.8.5 4.3.6 4.2.5 8.6.5 12.6.7.2 0 1.6.1.9.2-.5.1-1 .2-1.4.4-.3.1-1.1 0-1.1.2s1.6.4 1.7.5 0 .3.5.3c-.4 0-.2.1-.4.2-.7.1-1.9 0-2.7.1-.2 0-.8.1-.7.4.3.1.5.2.8.2.7.1 1 0 1.9.1.6.1 1.9.4 2.6.6s-.3.2-.7.2c-1 0-2.1-.1-3.3-.1-1.4 0-2.9-.2-4.3-.5-1.1-.1-2.3 0-3.5-.1-1.6-.1-3.2-.4-4.7-.5-1.6-.2-3.1-.4-4.7-.4-.8 0-1.6 0-2.4.1-.1.2 1 .5 1.3.4-1.1.3-2.2.5-3.4.5-.7 0-3.2.3-3.8-.1-.2-.1-.3-.7-.5-1-.2-.3-.4-.7-.5-1-.3-1.3.2-2.8.4-4.1.4-2.2.6-4.8 1-7 .1-.4.2-1.3.2-1.4.2 0 .3.1.5.1.8.3.6.8.5 1.8-.1.4-.1.7-.2 1.2-.2 1.5-.8 4.3-1 5.8 0 0-.2.6-.1.7.3.3.4-.5.4-.4 1.3-5 2.3-10.1 2.9-15.2.2.9-.2 2.6-.3 3.9-.1 2.2-.3 4.5-.6 6.4-.4 2.8-1.6 5-1.7 8 0 .5.1 1.1.4 1.6.3.4 1.2.3 2.1.3.4 0 1.8.2 1.9-.1s-.6-.2-.8-.3c-.4-.1-.9-.3-1.3-.5-1.2-.9-1-3.1-.7-4.8.4-2.2.7-5 1-7s.5-4.1.7-6.3c.3-2.8.3-5.6.4-8.2 0-1.8.2-3.5.5-5.3.3-1.6.7-3.1 1.3-4.6l.3-.9c.1-.3.3-.5.4-.8.1 0-.2.8-.3.9-.8 2.9-1.1 5.8-1 8.8 0 .8-.1 1.6-.1 2.5 0 3.8-.2 7.6-.5 11.5-.1 1.4-.4 3.1-.5 4.8 0 .3-.3.7.1.5s.2-1.6.5-2.2c.2-.5.4-1 .5-1.6.1-1 .2-2.2.2-3 0-1.5.3-3 .4-4.6l.3-3c.1-.5.4-.6.6-1 .3-.9.4-1.9.3-2.9.1-1.9.4-3.9.8-5.8.2-1.7.6-3.4 1-5.1.2-.6.5-1.3.7-1.9.2-.4.4-.9.6-1.4 0-.1.1-.4-.1-.4-.2.3-.4.7-.6 1-.5.8-.8 1.4-1.2 2.1-.2.4-.4.7-.7 1l.4-1.3c.5-1.3 1-2.6 1.6-3.8.6-1.4.7-3 1.2-4.7.3-1 .5-2.1.5-3.2.1-1 .2-2.1.1-3.1 0-.1-.1-.8-.3-.7s-.1.9-.1 1.1c-.2 2.2-.6 4.3-1.3 6.4 0 .1-.4 1.2-.4.9 0-1 .3-1.6.4-2.5.2-1.8.4-3.7.4-5.6 0-.8-.1-1.6-.2-2.4-.3-1-.8-2-1.5-2.8-.5-1.1-.8-2.2-.9-3.3-.3-1-.9-1.9-1.6-2.6-.4-.4-.7-1-1-1.4-.8-.6-1.7-1.1-2.7-1.3-.8-.2-1.3-.7-2.3-1-.8-.2-1.6-.4-2.4-.5-.8-.1.1-.1.4-.1 1.5-.2 2.6.5 3.8.7.7 0 1.4.2 2.1.5.6.3 1.6.4 1.9.8 1.7 1.8 2.5 4.2 3.9 6.5s2.7 4.5 2.9 7.5c.1 1.8.1 3 .1 4.2-.1.5-.2 1-.2 1.5 0 .9 0 1.8-.1 2.6-.2 2.3-.7 4.6-1.4 6.8-.4 1.5-1 2.9-1.3 4.4-.3 1.5-.6 3.1-.7 4.7-.2 2.4-.6 4.8-.9 7.1-.6 5.5-1.6 10.1-2 15.3v.7c-.1.3-.6.2-.7.4 0 .2-.1.3-.1.5-.3.9-.5 1.9-.4 2.9.1.5.5.6 1 .7.9.1 1.8.1 2.7-.1v-.2c-.8-.2-1.4-.6-1.9-1.2-.3-.5-.5-1.1-.7-1.7.3-.5.7.4.8.5.9 1.1 2.1 1.8 3.5 2.1l-.3-.4zm-12-4.1c0 .4-.1.8-.3 1.2-.2.2-.4 0-.6-.1-1.6 0-3.1.1-4.6.3-.2 0-.5 0-.8.1s-.8.3-.6-.1c1.8-4.4 2.9-9.1 3.3-13.8.2-2.7.2-5.4.7-7.9.5-3 1.1-5.6 2.5-7.5 0 0 0-.1.1-.1.2 0 .2.3.5.5s.5.1.6.2.3 1 .5 1.3c.5.8 1.1.9 1.2 2.1.1 2.4 0 4.8-.2 7.3-.3 3-.4 5.7-.7 8.3-.2 1.5-.6 3.1-.8 4.8-.3 1-.6 2.1-.8 3.4zm-1.2 5c0 .1.1.5 0 .6-.4 0-.7.1-1.1.1-2.1.1-3.7.3-5.7.4-.7.2-1.5.2-2.3.3l1-1.1c.3-.4.7-1.1 1-1.2.5-.1 1-.1 1.6-.1 1.6-.1 3.2-.3 4.5-.3 0 0 1.4-.1 1.5.1-.1.3-.3.7-.5 1.2zm-9.9.4c-.8.9-1.8 1.6-2.9 2.1-3.4 1.6-7.4 1.6-12.1 1.9 3.2-.4 6.4-1.3 9.5-2.5.9-.3 1.7-.8 2.4-1.4.1-.1.4-.3.4-.4s.3-.3.5-.5c1.6-1.6 2.9-3.5 3.8-5.6.3-.8.6-1.6.8-2.4.3-1.1.5-2.1.6-3.2.4-2.1.9-3.8 1.2-6 .6-3.8.4-8.5 1.1-12.2 0-.4 0-.8.1-1.3.1-.3.3-.7.5-1.2s.5-1.9.5-.6c0 2.6-.4 5-.6 7.5l-.3 3.2c-.1.6-.1 1.3-.1 1.9-.1 1.5-.3 3.1-.4 4.8 0 0 0 .5.1.3s.2-.4.3-.7c.2-.8.3-1.6.3-2.4.1-1.4.2-2.7.4-3.8.1-.5.1-1.1.1-1.6 0-.2.1-.5.1-.8.1-.8.1-1.5.3-2.3.4-2.2.9-4.4 1.4-6.2.2-.6.4-1.2.7-1.7 0 0 .1-.2.1-.1-.2 2-.8 3.8-1.1 5.7-1 7.8-1.1 16.6-3.7 23.3-.9 2.6-2.2 4.6-4 6.2zm-8.8.2c3.5-1.2 6.3-2.7 8.2-5.5 0 0 .1-.2.1-.1 0 .5.1.7-1 2.2-1.6 2.3-3.7 3.3-6.6 4.3-.7.2-1.3.4-2 .5-1.7.3-3.5.5-5.3.5 2-1.2 4.2-1.1 6.6-1.9zm-8.3 2c-1.2.4-6.3.3-7.7.5.9-.1 5-.5 6.1-.6.9-.1 1.8-.3 2.4-.4s-.6.5-.8.5zM45 132.8c0-.6.2-1.5.2-2v-.1h.1c.2.8.3 1.5.3 2.3.2.8.3 1.7.2 2.6-.1.3-.4.8-.6 1.2-.3.5-.1-.6-.1-.9-.1-.8-.1-2.2-.1-3.1zm8.2 2.3c-.2.4-1.4 1.1-1.9.9-.1-.1-.5-.7-.6-.9-.7-.9-1.4-1.7-2.2-2.5v-.2m.1 0c.7.3 1.2-.5 1.9-.2.3.2.5.7.8 1 .2.2.5.3.8.4.3.1.9 0 1.1 0 .3.1.2 1.2 0 1.5l-4.6-2.7zm5.3 17.7c-.3-.1-.2-1.3-.2-1.8.3-2.2.3-4.5.2-6.7 0-.5-.1-1-.2-1.5 0-.2-.2-.3-.3-.6-.4-.8-.8-1.6-1.4-2.3-.1-.2.5-.3.8-.4.3-.1.6-.2.9-.2 1.3-.1 1.9.8 2.1 2.1 0 1.6-.2 3.2-.6 4.8l-.3 2.4c-.1.9-.2 1.6-.3 2.4-.1.5 0 1.6-.3 1.8 0-.1-.3-.1-.4 0zm-9-21.6c.4-.1.9 0 1.3.1 0 0 .1.2.1.3s.3 0 .4.1.3.5.5.6c.4.4 1.3.3 1.7.8 0 0 .3.4.2.5-.5.2-1 .3-1.5.3-.4-.3-.8-.6-1.1-.9-.5-.5-1.1-1-1.6-1.6-.1 0-.2-.1 0-.2zm5.7-86.7c-.1.2-.7-1.3-.7-1.8s.6 0 .7-.6c.1-.3-.2-.3.1-.4s.4-.5.7-.5.5.6.3 1c-.5.8-.9 1.5-1.1 2.3zM50 43s.1-.5.1-.4c0-.1-.4-.5-.2-.8.2.2.4.5.5.8.1.5-.3 1.2-.4.4zm-1.8-8.9c-.4-2.1-.2-4.3.8-6.2.1-.3.2 0 .3.1.1.2.3.4.4.5.7.7 1.4 1.5 2.1 2.3.6 1.2.9 2.4.9 3.7.1.4.2.8.2 1.2-.1.1-.3 0-.4 0-.4.3-.2 1.2-.3 1.9-.3-.6-.5-1.3-.4-2 0-1.5.4-3.4-.4-4.8-.3-.5-.7-.9-1.1-1.3-.1-.1-.7-.7-.8-.6s.2.8.3.9c.2.4.4.9.5 1.4.1.3.2.5.3.8 0 .8-.1 1.6-.3 2.4-.1 0-.2-.3-.3-.4-.3-.6-.6-1.2-1.1-1.7v.1h-.1c.2 1.9.4 3.7 1.4 4.8.2.1.7.5.7.6s-.6.5-.6.5c-.1-.1-.2-.3-.3-.5-.8-1.2-1.4-2.4-1.8-3.7zm8 11.1c-.8 0-1.6-.2-2.4-.5-.4-.2-.9-.5-1.2-.9-.2-.4-.3-.8-.4-1.3 0-.1-.1-.1-.1-.2s0-.1 0 0l.1.2c.2.3.5.4.8.6.9 1 2 1.7 3.2 2.1zm-1.6-6.1c.2-.2.5-.4.8-.4.4-.1.7-.1 1.1 0-.1 0 .7.4.8.5.5.5-.4.1-.6 0-.7 0-1.3.1-1.9.4-.2.1-.4.1-.6.2.1 0-.3-.3-.3-.2 0-.2.6-.5.7-.5zm.3-3c.7-.2 1.4-.2 2.1-.2.9.1 1.7.4 2.4 1.1.1.2.3.4.5.6 0 .1-.6-.3-.6-.3-1.4-.7-3-1-4.6-1 0 0-.6.2-.6 0s.7-.1.8-.2zm2.5-2.1c.1-.3.1-1 .2-1.4s.4-1 .6-1.6c.1-.6.3-1.1.5-1.7.3-.6.6-1.3.8-2v-.1s.4.5.5.6c.1.3.1.7.1 1 0 1-.2 2-.7 2.9-.4.7-.7 1.4-.8 2.1-.1.5-.8 1.6-1.3 1-.4-.2 0-.5.1-.8zm-2.8 6.8s.2-.1.2 0c.1.2.1.7.5.8.6.1 1.3-.3 1-1.1-.1-.1-.1-.1.1-.1.6-.1.6 1 .3 1.3-.5.5-1.3.5-1.8 0-.1 0-.6-.9-.3-.9zm1.3.2c0 .1-.2.2-.4.2s-.4-.1-.4-.2.2-.2.4-.2.4 0 .4.2zm-1.3-.6c-.1-.1.3-.4.5-.4l1-.3c.3 0 .8 0 .9.2.3.4-.6.1-.7.1s-1.5.5-1.7.4zm6.3.8c.6.5 1.1 1 1.6 1.6.6.5 1.2 1 1.6 1.3.2.2 0 .2.3.3.1 0 .2.2.3.3.5.3 1.1.3 1.2.5s.3.7.1.9l-1-.5h-.2c-.4 0-.6-.5-.8-.6-.3 0-.6 0-.8.1-.4.4.1 1.2.3 1.3.7.4 1.4 0 1.6 1 .1.3.2.7.4.9.2.2-1.1 1.1-1.4 1.2-.6.2-1.3.2-1.9.1-.5-.1-1-.8-1.7-.5-.2.1-.2.6-.4.7s-1.5-.1-1.8-.1c-1 0-2-.1-3-.3-1-.3-1.8-.8-2.5-1.6-.4-.5-.7-1.1-.9-1.8-.2-.7-.3-1.3-.4-2 .3.3.5.6.6 1 .2.4.4.8.6 1.1.7.8 1.6 1.6 2.5 2.2 1 .7 3.2.7 4.6.5.3 0 .5 0 .3-.4s-1.2-.8-1.4-1.2c-.1-.1.6-.1 1 0 .9.2 1.7 1.3 2.5 1.6.1 0 1.3.2 1.3-.1s-.4-.2-.6-.3c-.3-.2-.5-.3-.7-.5-.2-.2-.9-1.1-.3-.9s.4-.1.8-.2c.1 0 .9.5.9.1 0-.2-.4-.1-.5-.2-.4-.3-.8-.6-1.1-1-.1-.2-.4-.8-.2-1s.6 0 .7-.3c.1-.3.1-.7 0-1-.3-1.3-2.5-2-3.1-2.9 0 0-.4-.6-.3-.8.8 0 1.1.8 1.7 1.1l.1.4zm.1-2.6c.7-.3 1.9.9 1 1.1h-.1c-.1.3.3.5.4.8s-.2.3-.2.4c0 .3.7.6.9.8.5.5 1 1.1 1.4 1.7 0 .1.6.8.2.4s-.8-.7-1.2-1c-.6-.5-1-1.2-1.5-1.8-.3-.5-.7-.7-.9-1-.1-.3-.2-1.3 0-1.4zm6 8.3s.1.1.1.2c0 1-.5 1.9-1.3 2.5-.7.3-.2-.1 0-.3.6-.5.9-1.1 1.1-1.9 0-.1 0-.4.1-.5zm4.6 32.4c.9-.5 1.8-1 2.6-1.7 0 0 0-.1.1-.1.3 0 1.3 1.8 1.6 2.2.1.2-.2.2-.6.2-1.4.1-2.8 0-4.2-.2-.4 0 .2-.3.5-.4zm-.2-1.5c.4-1.4.6-2.8.6-4.2l-.1-.3s.2.4.1.3c.2.4.6.9.9 1.5.1.3.8 1.2.8 1.5s-1 .9-1.2 1-.8.6-1.1.9 0-.5 0-.7zM84.7 65c.1-.1.2-.2.3-.2.1 0 .3 0 .4.1.1.1.8 1 .7 1s-.5-.2-.4-.2c-.3-.1-.6-.1-.9 0 0 0-.5.5-.6.5s.5-1.2.5-1.2zm2.3-.3c.2-.2.5-.4.8-.4.4 0 .7.3.9.8s.3 1.4 0 .7c-.2-.6-.8-.9-1.4-.8l-.6.3.3-.6zm2.5.9c0-.2.2-.2.3-.2h.3c.3.1.7 1.3.2.9-.3-.1-1-.1-.8-.7zm4.1-15.5c-1-.7-2.8-.1-3.8.2-6.7 2-13.2 4.8-18.1 8.5-1.3 1-2.2 2.5-2.5 4.1 0 .4-.2 1.3-.2 1.2-.2-.5-.5-1.1-.8-1.5-.4-.6-.7-1.1-1-1.5-.8-1-1.8-1.7-2.5-2.6-.6-.9-1.1-1.9-1.5-3-.6-1.1-1.1-2.4-1.3-3.7 0-.3-.1-1.2 0-1.3s.6.2.8.2c.4 0 .9 0 1.3-.1s.7-.4 1-.4.3.2.6.2c1.6 0 2.3-1.7 2.4-2.9 0-.5-.1-.9-.2-1.4 0-.1.1-.3.1-.4-.1-.5-.8-.7-1.2-1-.9-.6-1.8-2.1-2.6-3-.3-.3-1-.7-.5-1.1.2-.2 1-.2.7-.5-.1-.2-.5 0-.7-.1s0-.3 0-.4c-.3-.6-.7-1-1.3-1.3-.3-.1-.6.1-.8 0-.3-.2-.5-.5-.7-.8v-2.2c.3-1.6 1.2-3.6 1-5.6-.1-1-.8-2.7-1.6-3-.2-.1-.4-.1-.6-.1-.3.6-.6 1.2-.8 1.8-1 2.6-1.5 5.2-3.5 6.8-.2.1-.9.6-1 .5-.1-.2-.1-.3-.1-.5-.3-1.1-.3-2.2-.6-3.3-.5-1.6-2.1-2.9-3.1-4.1-.2-.2-.2-.5-.4-.6-.6-.3-1.2.4-1.3.6-.7 1.7-1 3.4-.8 5.2.1 1.3.4 2.6 1.1 3.8.2.3.9 1.1.9 1.5 0 .2-.2.3-.2.4-.3 1.9-.2 3.8.2 5.7.2 1 .3 2 .6 3 .3.9.5 1.9.7 2.8v1.4c.1 1.6.5 2.9.6 4.4 0 1.4-.1 2.8-.3 4.2-.3 2.7-1.1 5.3-1.1 8.1 0 2.2.2 4.3.3 6.3.1.9.2 1.9.2 2.8-1 1.6-1.4 3.1-2 4.6-1.1 3-1.9 5.9-2.8 8.8-.5 1.5-1.1 2.9-1.6 4.3-1 2.6-1.8 6-2.8 8.6-1.2 2.7-2.1 5.6-2.6 8.5-.2.9-.4 1.9-.5 2.7-.1 1.3-.3 2.4-.4 3.5-.1 2.4-.1 4.8.1 7.3.1 1.3.4 2.6.6 4 .4 3.9.5 8 .5 11.1 0 1.1-.2 2.2-.1 3.4v1.6c0 .5.1 1 0 1.5-.1 2.6.2 5.2-.1 7.9-.1 1.2-.3 2.5-.5 3.7-.2 2.1-.8 4.2-1.8 6.1-2.4 4.2-8.4 5.3-13.8 6.3-.9.1-1.8.2-2.6.2-2.8.2-5.5.3-8.4.4-2.3.2-4.6.6-6.9 1.1-.6.1-2 .2-2 .7s1.5 1.4 2.2 1.5c1 .2 2 .3 3.1.2 3.3 0 6.5.2 9.3.3 6 .1 12.9-.1 17.9-1.6.6-.2 1.2-.6 1.6-.7s1 0 1.6 0c3.4-.3 6.5-.3 9.9-.4h1c.5 0 .6.5 1 .6.4.1.8.2 1.3.3 2 .2 3.9.2 5.9 0 3.3-.1 6.7.1 10 .5 2.8.2 5 .3 7.9.5.8 0 1.5.3 2.2.4.7.1 1.4 0 2-.2.7 0 1.4 0 2.1-.1l.6-.3c.5 0 1 0 1.5.1.2 0 .6.3.7.3.4-.2-.5-1-.6-1.1s-.6-.2-.3-.3c.3-.1.5-.2.7-.3.5-.2 1.9.3 2 .1s-.6-.8-.8-.8c-.6-.2-1.1-.4-1.7-.5-.5-.3.1-.3.4-.3s1.3.2 1.4 0-1.1-.7-1.3-.8-.3 0-.4 0-.2-.3-.4-.3c-.8-.5-1.7-.9-2.7-1.2-1.1-.1-2.3.1-3.4-.1-.9-.2-1.5-.4-2.5-.5-1.2 0-2.5.1-3.7.3-.5 0-1-.1-1.5-.1-1.2-.1-2.5-.2-3.8-.4-1.5-.1-3-.3-4.4-.6-.5-.2-1.1-.4-1.6-.7 0-.2.7-.2.9-.2.5 0 .7.1 1.1.1 1.3 0 2.5-.3 3.8-.2s2.6 0 3.8.1c2.8.1 6.5.6 9.5.8.6.1 1.3.1 1.9.1.3 0 .6-.2.8-.3 1.2-.2 3 .7 4.1.4.5-.1 1-.5 1.4-.6s1.3.3 1.5.1-.6-.6-.8-.7c-.7-.3.1-.1.6-.2.2 0 .3-.1.6-.1.5 0 1.9.3 2 .1s.1 0-.1-.2c-.4-.4-.9-.7-1.4-.9h-.5c-.1-.1-.2-.3-.2-.4.1-.1.6.3.7.1s-.3-.4-.6-.5c-.6-.3-1-.6-1.6-.8-.8-.3-1.5-.6-2.4-.8-.7 0-1.4.1-2.1.2-.7 0-1.3 0-2-.2-1.4-.3-2.8-.4-4.2-.5-3.8-.1-7.5-.9-11-2.4-1.5-.7-1.5-3-1.3-4.8.4-2.4.6-5.2.9-7.6 0-.9.1-1.7.3-2.6.2-.8.3-1.6.4-2.4.1-.8.3-1.5.4-2.3.4-3 .4-6.4 1.4-9.1.5-1.3 1.3-2.5 1.7-3.8.1-.3.2-.4.3-.7l.2-.6c.3-.8.5-1.6.7-2.4.2-.8.3-1.6.4-2.4.4-3.6.2-7.2-.5-10.8-.4-1.9-1-3.7-1.8-5.4-.2-.4-.6-.7-.7-1 0-.5.1-1.1.2-1.6.5-5.3.1-10.4.9-15.5.1-.9.2-1.7.4-2.5 0 0 .6-.1.7-.1 1-.1 2.3 0 3.4-.1 1.6-.2 3.2 0 4.7.6.7.4 1.1 1.3 2 1.6.6.2.6.4 1 .8.9 1.1 2.7 1.2 3.3-.2.3-.9-.1-1.5-.2-2.2 0-.1.1-.3.1-.4-.1-.8-1.4-1.1-1.7-1.7.1.1-.2-.5-.2-.5h.6c.8 0 1 .5 1.2 1.1.1.2 0 .6.3.6s.4-.4.4-.5c.1-.5.1-1.1-.1-1.6 0-.2.2-.2.2-.6 0-.4-.2-.8-.5-1.1-.3-.3-.8-.1-1-.5s-.1-.6-.4-.9c-.6-.1-1-.3-1.4-.3-.1 0-.6.1-.7 0 0-.1-.1-.2-.1-.3-.3-.3-.6-.5-1-.5-.1 0-.4.1-.5 0s-.6-.9-.7-1.2c-.3-.5-.4-.9-.6-1.3-.1-.1-.4-.4-.3-.5.3-.2.5-.4.8-.5.3-.2.6-.3.9-.5.2-.1 2.4-1 2.4-1.4s-1.5.2-1.7.2c-.7.2-1.4.6-2 1-.1.1-.8.6-1 .5s-.3-.6-.3-.7l-.2-.8c-.2-.5-.4-.9-.5-1.5l.6-.2c.9-.3 1.8-.6 2.6-1.1.2-.1.7-.9.8-.9s.3.6.3.5c.7.8 1.7 0 2.3-.5.1-.1.7-.8.8-.8s.4.5.6.5.4 0 .5.1-.3.8-.1.9 1.2-.8 1.3-1 0-.4.1-.5c.2.2.4.5.7.6.1.3-.4.7-.2.9s.7-.3.9-.4.6-.9.8-.8-.1.8-.1.8c-.1.3-.4.6-.4.7.3.4 1.5-.6 1.7-.6 1-.5 2.2-1.2 2.3-2.5 0-.4-.2-.8-.5-1.1-.3-.1-.6 0-.9.1-.1-.1.1-.6 0-.8 0-.6-.6-1.1-1.3-1.1-.2 0-.3.3-.5.3s-.4-.8-.5-1c-.6-.6-1.6-.5-2.2.1-.1.1-.4.6-.5.6s-.3-.3-.4-.3c-.8-.6-1.7.1-1.9.9-.1.3 0 .7-.1 1s-.6.2-.7.4-.3.5-.5.6-.6.3-.8.6c-.2.2-.4.5-.6.6-.4.3-.6.8-.8 1-.5.3-1 .6-1.6.8-.2.1-1.5.7-1.7.6s-.2-.6-.3-.8c-.2-.8-.6-1.7-.8-2.4-.4-2.1.4-4.2 2-5.5 3.3-2.6 6.9-4.9 10.7-6.9 1.3-.6 2.6-1.2 3.8-2 .6 0 2.5-1.8 1.1-2.8zM183.4 61.9c0 .1 0 0 0 0z" class="st2"/>
  <path d="M201.2 32.5v-.3m-.1-.1v.4-.4zM188.1 39.8c-.1 0-.1 0 0 0-.1 0-.1 0 0 0-.1 0-.1 0 0 0zM188.8 72.8v-.2h-.1v.2h.1zM177 84c.1 0 .2-.1.3-.1 0 0 .1 0 .1-.1 0 0 0-.1-.1-.1s-.2 0-.3.1c-.1.1-.1.1 0 .2 0-.1 0-.1 0 0zM170 82.8s0-.1 0 0l-.1-.1h-.1v.1h.2c-.1 0 0 0 0 0zM170 81.2c-.1-.1-.1 0-.1-.1m-.1 0c0 .1.1.1.2.1l-.2-.1zM171.4 80.3c-.1 0-.1-.1-.2-.1.1 0 .1.1.2.1zM184.5 74.6c.1 0 .1 0 0 0 .1 0 .1 0 0 0zM177.9 165.9s0-.1 0 0v-.1h-.2s-.1 0-.1.1c0 0 0 .1.1.1l.2-.1zM169.3 166.2h-.2.2zM169.6 165.4h.2v-.1h-.2v.1c0-.1 0-.1 0 0zM183.9 138.4s0-.1 0 0v-.2.2c0-.1 0-.1 0 0zM183.6 114.8v-.3h-.1v.1s0 .1.1.2c-.1 0-.1 0 0 0zM189.3 169.8c0-.1-.1-.1 0 0l-.2-.1h-.1v.1H189.3zM201.5 132.5c.1-.1 0-.1 0-.1h-.2v.1h.2zM226.3 174.7c-.1-.1-.1 0-.1 0s0 .1.1 0c-.1.1 0 .1 0 0zM226.5 174.7c-.1-.1-.1 0-.1 0 0 .1 0 .1.1 0 0 .1 0 .1 0 0z" class="st1"/>
  <path d="M227.6 172.9c-.2-.1-1.3-.6-.8-.5s1.5.3 2.4.4c1.1.1 5.2.5 6.1.6-1.4-.2-6.4-.1-7.7-.5zm-7-.7c-.7-.1-1.3-.3-2-.5-2.8-1-4.9-2-6.5-4.3-1.1-1.5-1-1.7-1-2.2 0-.1.1.1.1.1 1.9 2.8 4.7 4.4 8.2 5.5 2.4.8 4.6.8 6.5 1.9-1.8 0-3.6-.1-5.3-.5zm-7.2.6c-1.1-.5-2-1.2-2.9-2.1-1.8-1.6-3.1-3.7-4-5.9-2.5-6.8-2.7-15.6-3.7-23.3-.2-1.9-.8-3.7-1-5.7 0-.1.1.1.1.1.3.6.5 1.1.7 1.7.5 1.8 1 4 1.4 6.2l.3 2.3c0 .2.1.5.1.8.1.5.1 1.1.1 1.6.2 1.1.3 2.4.3 3.8l.3 2.4c.1.2.2.5.3.7.1.1.1-.4.1-.3-.2-1.6-.4-3.3-.4-4.8 0-.6 0-1.2-.1-1.9l-.3-3.2c-.2-2.5-.6-5-.6-7.5 0-1.3.3.1.5.6s.4.9.5 1.2c.1.4.1.8.1 1.3.6 3.7.5 8.4 1 12.2.3 2.3.8 4 1.2 6 .1 1.1.4 2.1.6 3.2.2.8.5 1.6.8 2.4.9 2.1 2.2 4 3.8 5.6.2.2.4.3.5.5s.4.3.5.4c.7.6 1.5 1 2.4 1.4 3 1.2 6.2 2 9.5 2.5-4.8-.6-8.7-.6-12.1-2.2zm-5.9-1.5c-2-.2-3.6-.3-5.7-.4-.4 0-.7 0-1.1-.1-.1-.1 0-.5 0-.6-.2-.4-.3-.9-.4-1.3.1-.2 1.5-.1 1.5-.1 1.3 0 3 .1 4.5.3.5 0 1 0 1.6.1.3.1.7.9 1 1.2l1 1.1c-.9.1-1.6 0-2.4-.2zm-7.8-4.8-.3-1.2c-.2-1.3-.6-2.4-.7-3.5-.2-1.7-.6-3.3-.8-4.8-.3-2.6-.5-5.3-.7-8.3-.2-2.4-.3-4.8-.2-7.3.1-1.2.7-1.3 1.2-2.1.2-.3.3-1 .5-1.3s.4-.1.6-.2c.3-.2.3-.6.5-.5l.1.1c1.5 1.9 2 4.5 2.5 7.5.4 2.5.5 5.2.7 7.9.4 4.8 1.5 9.4 3.3 13.8.2.4-.4.1-.7.1s-.6 0-.8-.1c-1.5-.2-3.1-.3-4.6-.3-.2.1-.4.4-.6.2zm-.6 4.7c-.1.3-.3.7-.5 1-.1.3-.3.9-.5 1-.6.4-3.1.1-3.9.1-1.1 0-2.3-.2-3.4-.5.3.1 1.4-.2 1.3-.4-.8-.1-1.6-.1-2.4-.1-1.6 0-3.1.2-4.7.4-1.5.2-3.1.4-4.7.5-1.1.1-2.3 0-3.5.1-1.4.3-2.9.4-4.3.5-1.1 0-2.3.1-3.3.1-.4 0-1.4 0-.6-.2s2-.5 2.6-.6c.8-.1 1.2 0 1.9-.1.3 0 .6-.1.8-.2.1-.3-.5-.3-.7-.4-.8-.1-2 0-2.7-.1-.2 0 0-.1-.4-.2.6.1.4-.1.5-.3s1.7-.3 1.7-.5-.8-.1-1.1-.2c-.5-.2-1-.3-1.5-.4-.6-.1.7-.2.9-.2 4-.2 8.4-.2 12.6-.7 1.4-.1 2.9-.3 4.3-.6 1.4-.2 2.6-1 3.5-2.1.1-.1.5-1 .8-.5-.1.6-.4 1.2-.7 1.7-.5.6-1.2 1-1.9 1.2v.2c.9.1 1.8.2 2.7.1.4-.1.9-.2 1-.7.1-1-.1-2-.4-2.9 0-.1 0-.4-.1-.5s-.6-.1-.7-.4 0-.4 0-.7c-.4-5.2-1.4-9.8-2-15.3-.3-2.3-.7-4.7-.9-7.1-.1-1.6-.4-3.1-.7-4.7-.3-1.5-.9-2.9-1.3-4.4-.7-2.2-1.2-4.5-1.4-6.8-.1-.9-.1-1.8-.1-2.6 0-.5-.1-1-.2-1.5 0-1.2 0-2.4.1-4.2.1-3.1 1.5-5.2 2.9-7.5s2.3-4.6 3.9-6.5c.4-.4 1.3-.5 1.9-.8.7-.3 1.4-.4 2.1-.5 1.2-.1 2.4-.9 3.8-.7.2 0 1.2.1.4.1-.8.1-1.6.2-2.4.5-.9.3-1.5.7-2.3 1-1 .2-1.9.7-2.7 1.3-.4.4-.7 1-1 1.4-.8.7-1.3 1.6-1.6 2.6-.1 1.1-.5 2.3-.9 3.3-.6.9-1.1 1.8-1.5 2.8-.1.8-.2 1.6-.2 2.4 0 1.9.1 3.7.4 5.6.1.9.3 1.6.4 2.5 0 .3-.3-.7-.4-.9-.7-2.1-1.2-4.2-1.4-6.4 0-.1 0-1-.1-1.1s-.3.6-.3.7c0 1.1 0 2.1.1 3.1 0 1.1.2 2.2.5 3.2.5 1.6.5 3.2 1.2 4.7.6 1.2 1.1 2.5 1.6 3.8l.4 1.3c-.3-.3-.5-.7-.7-1-.5-.8-.8-1.3-1.2-2.1-.2-.4-.4-.7-.6-1-.2 0-.1.4-.1.4.2.5.3.9.6 1.4.3.6.5 1.2.7 1.9.4 1.7.8 3.4 1.1 5.1.4 1.9.6 3.8.8 5.8 0 1 .1 1.9.3 2.9.2.4.5.6.6 1l.3 3c.2 1.6.4 3.1.4 4.6 0 .8.1 2 .2 3 .1.5.2 1.1.5 1.6.2.6.1 1.9.5 2.2s.1-.2.1-.5c-.1-1.7-.4-3.4-.5-4.8-.3-3.3-.5-7.6-.5-11.5 0-.9-.1-1.7-.1-2.5.1-3-.2-5.9-1-8.8 0-.1-.4-.9-.3-.9.2.2.3.5.4.8l.3.9c.5 1.5.9 3 1.3 4.6.3 1.7.4 3.5.5 5.3.1 2.6.1 5.5.4 8.2.2 2.2.5 4.2.7 6.3s.5 4.8 1 7c.4 1.7.5 4-.7 4.8-.4.2-.8.4-1.3.5-.1 0-.8 0-.8.3s1.5.1 1.9.1c.9 0 1.7.1 2.1-.3.3-.5.4-1 .4-1.6 0-3-1.3-5.2-1.7-8-.3-1.9-.5-4.2-.6-6.4-.1-1.3-.5-3-.3-3.9.6 5.1 1.6 10.2 2.9 15.2 0-.1.1.7.4.4.1-.1-.1-.7-.1-.7-.3-1.5-.9-4.2-1-5.8-.1-.5-.1-.8-.2-1.2-.2-1-.4-1.5.5-1.8.2 0 .3 0 .5-.1 0 0 .1 1 .2 1.4.4 2.3.6 4.9 1 7 .2 1.3.8 2.8.4 4.1l-.2.4zm-9.9-4.5h-.8c-1.5-.1-3.1.1-4.9-.1-3.2-.2-6.4-.1-9.6.4-1.6.3-3.3.4-5 .3-.1 0-.8-.3-.8-.3-.2-.3.8-.7 1.1-.8h-.1.1c-1.2-.3-2.5-.4-3.7-.4 1.2-.4 3-.1 4.3-.4l-.1-.1v-.1l-3.5-.3c5.8-1.3 13.3-1.1 18.2-3.6 1.1-.5 1.8-1.6 1.8-2.8 0-1.3 0-2.6-.2-3.9-.5-5.4-1.2-10.7-2-16.3h-.1v-.1h.1c-.1-1.7-.4-3.4-.7-5.1-.4-1.7-1.3-3-1.7-4.6-.2-1-.9-2-1.2-3-.4-1.8-.7-3.7-.7-5.5-.1-2.7 0-5.3.5-7.9.2-1.8.7-3.5 1.4-5.1 0 0 .2-.6.3-.6s.2.9.2 1.1c.3 2.5.7 4.9 1.4 7.3v-.1h.1c-.5-3.3-.9-6.5-1.2-10-.4-4-.4-8.1-.7-12.3-.1-1.8-.3-3.6-.6-5.4-.1-.6-.2-1.2-.2-1.8h1.2c.3 0 1.2-.1 1.2.1.2.8.4 1.6.5 2.4.5 3.1-.1 7.2 2.3 8.3.2.1.5 0 .7.1.3.2.5.6.5.9 0 .4-.3.7-.3 1-.1 1.4 2 1.1 3.1.7.6-.2 1.3-.3 1 .5-.6 1.5-2.8 2.7-2.9 4.7 0 .4.2 1.4.4 1.4 0 0 .6-.7.8-.9.9-1.2 1.7-2.3 3.5-2.8.6-.1 1.4-.2 2.1-.4 1.8-.7 3.9-.6 5.7.2.4.2-.7 0-1-.1-.4-.1-.8-.1-1.2-.1-1.2.1-2.3.7-3.3.8-1 0-2 .3-2.9.7-.6.6-1.2 1.2-1.6 1.9-.5.7-1.2 1.3-1.6 2l-1.1 1.9c-1.2 1.5-2.1 3.3-2.7 5.1-.1.2-.3.4-.3.6-1.1 2.6-1.1 6.7-.9 9.8.2 3.3.8 6.6 1.7 9.9.1.5.3 1 .5 1.5.5.9.7 2 .8 3 .1 2 .4 3.8.5 5.8.4 5.2.5 10.1.7 15.2 0 1.1 0 2.2-.1 3.3v.7c0 .3.5 1 .3 1.4s-1.8.3-2.2.3c-2.8.1-5.5.5-8.2 1l.1.1v.1c2.6.1 5.7-.8 8.5-.5.8.1 1.6.5 2.4.5.4 0 .7-.2.9-.5.1-.1 0-.6.1-.7l.6.3c.1.6-.1 1.3-.5 1.7-.2.1-.7-.1-.8-.1l-.2-.3zm-14.4-82.6c-1.4-.1-2.9.2-4.2.8-.5.3-1.1 1.4-1.9 1.3 0 0-.6-.3-.6-.4.2-.3.4-.6.7-.8.5-.4 1.1-.7 1.7-1-.1.1.2 0 .2-.2s-1.6.2-1.7.2c-1 .2-1.9.6-2.8 1.1-.4.3.1-.5.2-.6.6-1 2.1-1.4 3.5-1.6v-.1h.1c-.8-.4-1.7-.7-2.6-.9-.5-.1-1.1-.2-1.6-.4.2-.3.4-.5.6-.7.9-.3 2.6.5 3.5.4h.1c-.2-.3-.6-.4-1-.7-.2-.2-.9-.9-.6-1s.9.2 1.1.3c.6.3 1.2.5 1.8.6v-.1c-.3-.1-.9-1.6-.9-1.6.4-.1 1.5.8 1.7.9.5.4 1 .8 1.6 1 1.3.2 2.6.2 4 .1 1.1-.1 2.1-.2 3.1-.5 2-.4 4-.9 5.9-1.5.8-.3 1.7-.6 2.6-.8.5-.1 1 0 1.3-.3s.1-1 .1-1.3c0-.8-.1-1.6-.3-2.4-.1-.4-.1-1.4-.4-1.3l-.6 1.2c-.1.3.1.5 0 .7s-.7.7-.9 1.3c-.1.2 0 .3-.1.4s-.3.2-.4.4c-.4.6-.1.8-1 .9-.2 0-.6.2-1 .3s-.7.4-.9.3c-.8-.2-.4-2.6-.5-3.3-.6.7-1.1 1.6-1.7 2.1-.2.2-.9.7-1.1.5-.1-.4-.2-.8-.1-1.2-.1-3.3.7-6.6 2.3-9.6 0 0 .5-.7.3-.8s-.6.7-.8 1c-1 1.7-1.8 3.5-2.3 5.5-.4 1.6-.5 3.3-.4 5 .1.5.1.9 0 1.4 0 0-.6.8-.7.8s-.2-.9-.3-1c-1.2-2.7-1.3-5.7-.2-8.4 1.1-2.8 2-5.8 3.8-8 .9-1.2 1.9-2.3 3-3.3 1.3-1.3 2.3-3.9 2.6-6 0-.1.1-1.3.2-.7.2 1.3.2 2.5 0 3.8v.8c-.1.9-.6 1.6-.7 2.3s.3 1 .4 1.5c.2 1-.4 1.4-.5 2.3 0 .9.1 1.9.3 2.8 0 .5-.1.9-.1 1.4-.1.6.3.2.4-.1.2-.5.6-1.1.7-1.7.2-.9.7-1.8 1.4-2.4.2-.1.5-.7.4-.1s-.3 1.2-.4 1.6c0 .2-.1.5-.1.7-.1.3-.5.4-.6.6a3 3 0 0 0-.4 1c-.1.6.2 1.1 0 1.5s-.4.3-.6.5c-.2.2-.3.4-.4.7-.1.5-.1 1.1-.1 1.6-.2.6-.3 1.2-.3 1.8h.2c.3-.4.3-1.1.6-1.5.1-.1 1-.6 1.2-.5s0 1 0 1.3c0 1.2.7 2.3 1.9 2.9.4.2 1 .2 1.3.5.4.7.4 1.5.3 2.3-.3.6-.7 1.2-1.2 1.7-.1 0-.2 0-.3.1-.8.5-1.6 1-2.4 1.4-1.4.4-3.3.4-4.6.8-.2.1-.4.1-.5.2-.6.1-1.2.3-1.7.5-.9.3-1.9.2-2.8.5-1.1.4-2.1.7-3.2.9v.2c2.9-.1 5.8-.4 8.7-.9.7-.1 1.4-.3 2-.3.9 0 1.6-.3 2.4-.3h2.1c.2 0 .4-.2.6-.3s.3 0 .4 0c1.8-.3 2-2 2-4-.2-.8-.1-1.7.1-2.5.3-.6.8-1.1 1.1-1.7.2-.8.5-1.5.8-2.2-.3 2.3-.5 4.2-.7 6.5-.2 1.9 0 4.3-1.6 4.9-.8.2-1.5.2-2.3.1-1.9 0-3.9.3-5.8.5-1.8.1-3.6.4-5.4.4-2.2.1-4.7-.1-6.9-.1h-.1zm-2.6-7.1c1.4-3.2 3-6.5 3.3-10.4 0-1.6-.4-3.1-1.2-4.5a7 7 0 0 0-1.4-1.6c-.6-.5-1.2-1-1.9-1.4a27.3 27.3 0 0 1-4.5-3.4s.4.2.6.4c1.4.6 2.7 1.4 4.2 2.3 1.5.8 2.8 1.8 4 3 1.4 1.7 1.9 4 1.5 6.2-.4 2.1-1.1 4.2-2 6.1-.7 1.6-1.6 3.1-2.6 4.5-.1.1-.4.5-.6.2.1-.6.3-1 .6-1.4zm-6.8-21.3c-1-.5-1.9-1-2.9-1.7.8.3 1.4.6 2.4 1 .5.2.9.5 1.2.8-.2-.2.6.5.5.5-.4-.1-.8-.4-1.2-.6zM179 79.8c-1.4.2-2.8.3-4.2.2-.5 0-.8 0-.7-.2.2-.4 1.3-2.3 1.6-2.2l.1.1c.8.6 1.7 1.2 2.6 1.7.2 0 .8.3.6.4zm-1-6.5-.1.3c0 1.4.2 2.8.6 4.2.1.2.2.9-.1.6l-1.1-.9c-.2-.2-1.2-.6-1.2-1s.7-1.3.8-1.5c.3-.6.7-1 .9-1.5.1.2.1-.3.2-.2zm9.8-23.5c-.6.2-1.3.1-1.9-.1-.3-.1-1.6-1-1.4-1.2.2-.3.3-.6.4-.9.2-1.1.8-.6 1.6-1 .3-.1.8-1 .3-1.3-.3-.1-.6-.2-.8-.1-.2.1-.4.6-.8.6h-.2c-.1 0-1 .5-1 .5-.2-.1 0-.8.1-.9s.8-.2 1.2-.5l.3-.3c.3-.1.1 0 .3-.3.4-.4 1-.8 1.6-1.3.5-.6 1-1.1 1.6-1.6.5-.3.9-1.1 1.7-1.1l-.3.8c-.6.9-2.8 1.5-3.1 2.9-.1.3-.1.7 0 1 .2.3.6.1.7.3s-.1.9-.2 1c-.3.4-.7.7-1 1-.1.1-.5 0-.5.2 0 .4.7-.1.9-.1.4.1.3.4.8.2s-.2.7-.3.9c-.2.2-.5.4-.7.5-.2.1-.6 0-.6.3s1.2.1 1.3.1c.8-.3 1.6-1.4 2.5-1.6.5-.1 1.1-.1 1 0-.3.4-1.2.8-1.5 1.2s-.1.3.3.4c1.4.2 3.6.2 4.6-.5.9-.6 1.7-1.4 2.5-2.2.3-.3.5-.7.7-1.1.2-.4.4-.7.6-1-.1.7-.2 1.3-.4 2-.2.6-.5 1.2-.9 1.8-.7.7-1.5 1.3-2.5 1.6-1 .2-2 .3-3 .3-.4 0-1.5.3-1.8.1s-.2-.6-.4-.7c-.6-.3-1.2.4-1.7.5v-.4zm-3.7-.2c-.8-.6-1.3-1.5-1.3-2.5 0-.1.1-.2.1-.2s.1.4.1.5c.1.7.5 1.4 1.1 1.9.2.2.8.6 0 .3zm1.4-6c.4-.6.9-1.2 1.5-1.7.2-.2.9-.5.9-.8 0-.1-.2-.3-.2-.4s.5-.5.4-.8h-.1c-.9-.2.3-1.4 1-1.1.2.1.1 1.1-.1 1.5-.2.3-.6.5-.9 1a8.96 8.96 0 0 1-2.7 2.9c-.4.3.2-.4.2-.6zm4.4-14.7c0-.4.1-.7.1-1 0-.1.4-.7.5-.6s0 .1 0 .1c.2.7.5 1.4.8 2 .2.6.4 1.1.5 1.7.2.6.5 1.1.6 1.6s.1 1 .2 1.4.5.6.1 1c-.6.5-1.2-.5-1.3-1-.2-.7-.5-1.5-.8-2.1-.5-1.1-.8-2.1-.7-3.1zm5.2 7.3c.1 0 .8 0 .8.2s-.6 0-.6 0c-1.6 0-3.1.3-4.6 1 .1 0-.5.4-.5.3.2-.2.3-.4.5-.6.6-.7 1.5-1 2.4-1.1.6-.1 1.3 0 2 .2zm1 3.5c0-.1-.4.2-.3.2-.2 0-.4-.1-.6-.2-.6-.3-1.2-.5-1.9-.4-.3 0-1.1.5-.6 0 .1-.1.9-.5.8-.5.4-.1.7-.1 1.1 0 .3.1.6.2.8.4.1.1.7.3.7.5zm-2.6.7c.3 0 .2 0 .1.1-.3.8.3 1.2 1 1.1.5-.1.4-.6.5-.8h.2c.4-.1-.2.8-.3.9-.5.5-1.3.5-1.8 0-.2-.3-.3-1.4.3-1.3zm1.3.6c0 .1-.2.2-.4.2s-.4-.1-.4-.2.2-.2.4-.2.4.1.4.2zm-1.2-.9c-.1 0-1 .3-.7-.1.3-.2.6-.3.9-.2.3.1.7.1 1 .3.1 0 .6.4.5.4s-1.5-.4-1.7-.4zm3.3 3.1c.3-.2.6-.4.8-.6 0-.1.1-.1.1-.2s0-.1 0 0 0 .1-.1.2c-.1.4-.2.9-.4 1.3l-1.2.9c-.8.3-1.6.5-2.4.5 1.3-.5 2.4-1.2 3.2-2.1zm.4-8.6c0-1.3.3-2.5.9-3.7.6-.8 1.3-1.6 2.1-2.3.2-.2.3-.4.4-.5.1-.1.1-.4.3-.1 1 1.9 1.3 4.1.8 6.2-.4 1.3-1 2.5-1.8 3.6-.1.2-.2.3-.3.5 0 0-.6-.3-.6-.5s.5-.4.7-.6c1.1-1 1.3-2.9 1.4-4.8h-.1v-.1c-.4.5-.7 1.1-1 1.7-.1.1-.2.4-.3.4-.2-.8-.4-1.6-.3-2.4.1-.3.2-.6.3-.8.1-.5.3-.9.5-1.4.1-.1.4-.8.3-.9s-.7.5-.8.6c-.4.4-.7.9-1 1.3-.8 1.4-.4 3.3-.4 4.8.1.7-.1 1.4-.4 2-.1-.7.1-1.6-.3-1.9-.1 0-.3.1-.4 0-.1-.3-.1-.7 0-1.1zm2.5 8.1c0-.1.1.3.1.4-.1.8-.5.1-.4-.4.1-.3.3-.6.5-.8.2.3-.2.6-.2.8zm-.5-.8c-.3-.8-.6-1.6-1-2.3-.2-.5.1-1 .3-1s.5.4.7.5 0 .2.1.4c.1.6.7 0 .7.6s-.7 1.9-.8 1.8zm-2.6 93.2c-.2-.3-.3-1.3 0-1.5s.8 0 1.1 0c.3-.1.5-.2.8-.4.3-.3.5-.8.8-1 .7-.3 1.2.5 1.9.3v-.1h.1m.1 0v.1c-.8.8-1.5 1.6-2.2 2.5-.1.2-.5.9-.6.9-.5.2-1.7-.5-1.9-.9l4.7-2.6zm-5.3 15.9c0 .5.1 1.6-.2 1.8l-.3-.1c-.2-.2-.2-1.3-.3-1.8-.1-.7-.3-1.5-.3-2.4 0-.8-.1-1.6-.3-2.4-.4-1.6-.6-3.2-.6-4.8.1-1.3.8-2.3 2.1-2.1.3 0 .6.1.9.2.3.1 1 .2.8.4-.6.7-1.1 1.5-1.5 2.3-.1.3-.2.4-.3.6s-.1 1-.2 1.5c-.1 2.3-.1 4.6.2 6.8zm8.7-15.5v3.1c0 .3.1 1.5-.1.9-.2-.4-.5-.9-.5-1.2-.1-.9 0-1.7.2-2.6 0-.8.1-1.6.3-2.3h.1v.1c-.2.5 0 1.4 0 2zm-3.9-2.4c.4-.5 1.2-.4 1.7-.8.2-.2.3-.5.5-.6s.3 0 .4-.1 0-.2.1-.3c.4-.2.8-.2 1.3-.1.3.1.2.1.1.3-.5.6-1 1.1-1.6 1.6-.4.3-.7.7-1.1.9l-1.5-.3c-.2-.2.1-.5.1-.6zm-35.4-64.1c-.1 0-.6-.5-.6-.5-.3-.1-.6-.1-.9 0 .1 0-.3.2-.4.2s.6-1 .7-1c.1-.1.3-.1.4-.1.1.1.2.1.3.2.2 0 .7 1.1.5 1.2zm-2.4-.9-.6-.3c-.6-.1-1.2.2-1.4.8-.4.7-.2-.3 0-.7s.5-.9.9-.8c.3 0 .6.2.8.4.2.1.5.6.3.6zm-3.5 1c-.5.4-.1-.9.2-.9h.3c.1 0 .2 0 .3.2.1.4-.5.4-.8.7zm85.1 106.8c-2.2-.5-4.5-.8-6.8-1.1-2.9-.2-5.6-.3-8.4-.4-.9 0-1.8-.1-2.6-.2-5.4-1-11.4-2.1-13.8-6.3-.9-1.9-1.5-4-1.8-6.1-.2-1.2-.4-2.5-.5-3.7-.3-2.6 0-5.2-.1-7.9 0-.5.1-1 0-1.5v-1.6c.1-1.2-.1-2.3-.1-3.4 0-3.1.2-7.2.5-11.1.1-1.3.5-2.6.5-4 .2-2.4.3-4.8.1-7.3-.1-1.2-.3-2.3-.4-3.5-.1-.9-.3-1.8-.5-2.7-.6-2.9-1.5-5.8-2.6-8.5-1-2.6-1.8-6-2.8-8.6-.5-1.4-1.1-2.8-1.6-4.3-1-2.9-1.7-5.8-2.8-8.8-.6-1.5-1-3-1.3-4.6 0-.9 0-1.9.2-2.8.1-1.9.3-4.1.3-6.3 0-2.9-.8-5.5-1.1-8.1-.2-1.4-.3-2.8-.3-4.2.1-1.5.5-2.8.5-4.4v-1.4c.2-1 .4-1.9.7-2.8.3-1 .4-2 .6-3 .4-1.9.5-3.8.2-5.7 0-.1-.2-.3-.2-.4 0-.3.7-1.1.9-1.5.6-1.2 1-2.5 1-3.8.1-1.8-.2-3.6-.8-5.2-.1-.3-.8-.9-1.3-.6-.2.1-.3.4-.4.6-.9 1.2-2.5 2.5-3.1 4.1-.4 1.1-.3 2.2-.6 3.3 0 .1-.1.5-.1.5-.2.1-.9-.4-1-.5-2-1.6-2.5-4.2-3.5-6.8-.2-.6-.5-1.2-.8-1.8-.2 0-.4 0-.6.1-.7.3-1.5 2-1.6 3-.2 2 .8 4 1 5.6v2.2c-.2.3-.4.5-.7.8-.2.1-.5-.1-.8 0-.6.3-1 .8-1.3 1.4v.4s-.6 0-.7.1c-.2.4.6.4.7.5.5.4-.2.8-.5 1.1-.9.8-1.8 2.4-2.6 3-.5.3-1.1.5-1.2 1 0 .1.1.3.1.4-.1.5-.2.9-.2 1.4.1 1.2.8 2.9 2.4 2.9.3 0 .4-.2.6-.2s.6.3 1 .4c.4.1.8.2 1.3.1.2 0 .5-.3.8-.2s0 1 0 1.3c-.2 1.3-.7 2.5-1.3 3.7-.4 1.1-.9 2.1-1.5 3-.8.9-1.7 1.5-2.5 2.6-.4.5-.7 1-1 1.5-.4.4-.7.9-1 1.4-.1.1-.2-.8-.2-1.2-.3-1.6-1.2-3.1-2.5-4.1-4.9-3.7-11.4-6.5-18.1-8.5-1-.3-2.9-.9-3.8-.2-1.4 1 .4 2.8 1.1 3.3 1.2.8 2.5 1.4 3.8 2 3.8 1.9 7.4 4.2 10.7 6.9a5.5 5.5 0 0 1 2 5.5c-.2.7-.5 1.6-.8 2.4-.1.2-.1.7-.3.8s-1.6-.5-1.7-.6c-.6-.2-1.1-.5-1.6-.8-.2-.2-.4-.7-.8-1l-.6-.6c-.2-.2-.6-.3-.8-.6s-.3-.5-.5-.6-.6-.2-.7-.4 0-.8-.1-1c-.3-.8-1.1-1.5-2-.9l-.4.3c-.1 0-.3-.5-.5-.6-.6-.6-1.5-.7-2.2-.1-.2.2-.4.9-.5 1s-.3-.2-.5-.3c-.6-.1-1.2.4-1.3 1.1 0 .1.1.6 0 .8-.3-.1-.6-.1-.9-.1-.4.2-.6.6-.5 1.1 0 1.3 1.3 1.9 2.3 2.5.2.1 1.4 1 1.7.6.1-.1-.3-.4-.4-.7 0 0-.3-.7-.1-.8s.6.6.8.8.7.6.9.4-.3-.6-.2-.9c.2-.2.5-.4.7-.6.1 0 .1.4.1.5s1.1 1.2 1.3 1-.3-.8-.1-.9.3 0 .5-.1.5-.5.6-.5.7.7.8.8c.5.5 1.5 1.3 2.2.5 0 0 .2-.5.3-.5s.7.8.8.9c.9.4 1.7.8 2.6 1.1l.6.2c-.1.5-.3 1-.5 1.5-.1.3-.1.4-.3.7 0 .1-.2.6-.3.7s-.9-.4-1-.5c-.6-.4-1.3-.7-2-1-.2-.1-1.7-.8-1.7-.3s2.2 1.4 2.5 1.5c.3.1.6.3.9.5.3.2.6.4.8.5.1.2-.3.4-.3.5-.2.4-.3.7-.6 1.3-.1.3-.5 1.1-.7 1.2s-.4 0-.5 0c-.4 0-.7.2-1 .5 0 0 0 .3-.1.3h-.7c-.4.1-.8.2-1.1.5-.2.2-.1.5-.4.9s-.8.3-1.1.5c-.3.3-.5.7-.5 1.1 0 .4.2.4.2.6-.1.5-.2 1-.1 1.6 0 .1.3.5.4.5s.2-.4.3-.6c.2-.6.4-1.1 1.1-1.1h.6s-.2.6-.2.5c-.4.5-1.6.9-1.7 1.7 0 .1.1.3.1.4-.1.7-.5 1.3-.2 2.2.5 1.4 2.4 1.2 3.3.2.3-.4.3-.6 1-.8.9-.3 1.2-1.2 2-1.6 1.5-.6 3.1-.8 4.8-.6 1.1.1 2.5 0 3.4.1.2 0 .5 0 .7.1.2.8.3 1.7.4 2.5.8 5.2.4 10.3 1 15.5.1.5.2 1.1.2 1.6-.1.3-.5.6-.7 1-.8 1.7-1.4 3.5-1.8 5.4-.7 3.6-.9 7.2-.5 10.8a20.02 20.02 0 0 0 1.1 4.8c.1.2.1.5.2.6s.2.5.3.7c.5 1.3 1.3 2.5 1.7 3.8 1 2.7 1 6 1.4 9.1.1.8.3 1.4.4 2.3.1.8.2 1.6.4 2.4.2.9.3 1.7.3 2.6.2 2.4.5 5.3.9 7.6.3 1.7.3 4.1-1.3 4.8-3.5 1.4-7.1 2.2-10.9 2.3-1.4.1-2.8.2-4.2.5-.7.1-1.3.2-2 .2-.7-.2-1.4-.2-2.1-.2-.8.2-1.6.4-2.4.8l-1.6.8c-.3.1-.7.4-.6.5s.6-.1.7-.1c-.1.2-.1.3-.2.4h-.5c-.5.2-1 .5-1.4.9-.2.2-.1.1-.1.2s1.5-.2 2-.1c.3 0 .4.1.6.1.5 0 1.4-.2.6.2-.2.1-1 .5-.8.7s1.1-.2 1.5-.1.9.5 1.4.6c1.1.3 2.9-.6 4.1-.4.3.1.6.2.8.3.6 0 1.3 0 1.9-.1 3-.1 6.6-.7 9.5-.8 1.2 0 2.5 0 3.8-.1s2.6.2 3.8.2c.4 0 .5 0 1.1-.1.2 0 .9 0 .9.2s-1.5.7-1.5.7c-1.5.3-2.9.5-4.4.6-1.3.1-2.5.3-3.8.4-.5 0-1 .2-1.5.1-1.2-.2-2.5-.3-3.7-.3-1 .1-1.5.4-2.5.5-1.1.2-2.3 0-3.4.1-.9.3-1.7.7-2.5 1.2-.2.1-.3.3-.4.3h-.4c-.3 0-1.3.6-1.3.8s1-.1 1.4 0 .9 0 .4.3c-.6.1-1.2.3-1.7.5-.1.1-.9.7-.8.8s1.5-.3 2-.1c.2.1.5.2.7.3.3.1-.2.2-.3.3s-1 .9-.7 1.1c.1.1.5-.2.7-.3.5-.1 1-.2 1.5-.1.2 0 .4.2.5.3.7.1 1.4.1 2.1.1.6.2 1.3.3 2 .2.7-.1 1.4-.3 2.2-.4 2.9-.2 5.1-.3 7.9-.5 3.3-.4 6.7-.6 10-.5 2 .2 3.9.2 5.9 0 .4 0 .9-.1 1.3-.3.3-.1.5-.6 1-.6h1c3.4 0 6.5 0 9.9.4h1.6c.4 0 1 .5 1.5.7 5 1.5 11.9 1.7 17.9 1.6 2.8 0 6-.2 9.3-.3 1 .1 2.1 0 3.1-.2.7-.2 2.2-.9 2.2-1.5s-1.9-1.1-2.5-1.2zM60.7 38.3c.6-.1 1.9 0 1.9 1s.1 2-1.1 1.6-1.4-2.5-.8-2.6z" class="st2"/>
  <path d="M189.2 38.3c-.6-.1-1.9 0-1.9 1s-.1 2 1.1 1.6 1.4-2.5.8-2.6z" class="st2"/>
  <path d="M136.4 32c-.4-.5-2.4 2.8-2.1 5.7-.6-2.2-6.1-1.5-3.1 3.3 1 1-.2-2.9 1.5-2.3s.9 1.5.4 1.6c-.1 0-.9.7.2 1.6.6.5-3 2.1-4.9.9-2.2-1.4-2.7-3.1-2.1-3.3s1.6.7 3 2c.2-1.8.2-3.7.1-5.5 0-.6-3.2 2.2-3.3 1.8-.1-1.7 2.7-3.7 2.7-3.8-.2-.4-.8.2-.8-.1 0-1.2.1-2.4.3-3.6 1.5-1.5 3.6-2.2 5.7-1.8 3.3.6 2.8.6 3.1.4s4.5-2.1 7.4-1.1c.6.2 1.9.7 2 1.3.1 2.4-.4 4.7-1.4 6.8-.3.6-.8.1-2-.1-.1 0 1.7 3.8 1.7 4.1.1.8-.4.5-.7.2-.7-.8-1.3-1.7-1.9-2.6-.2-.3-1.2 4.8-1.7 5.5-.2.4 3.1-1.3 3.6-1.1.8.3-1.4 3.2-4.3 2.6-3.4-.7-3.3-2.2-2.8-2.2s1.3-1 .3-1.4c-.7-.3 0-1.6 1-1.4 1.9.4 0 3.2.4 3 4.5-2.9 0-6.5-1.7-4.4.8-2.2.6-4.3-.6-6.1zM113.5 32c.4-.5 2.4 2.8 2.1 5.7.6-2.2 6.1-1.5 3.1 3.3-1 1 .2-2.9-1.5-2.3s-.9 1.5-.4 1.6c.1 0 .9.7-.2 1.6-.6.5 3 2.1 4.9.9 2.2-1.4 2.7-3.1 2.1-3.3s-1.6.7-3 2c-.2-1.8-.2-3.7-.1-5.5 0-.6 3.2 2.2 3.3 1.8.1-1.7-2.7-3.7-2.7-3.8.2-.4.8.2.8-.1 0-1.2-.3-3.6-.3-3.6a6.35 6.35 0 0 0-5.7-1.8c-3.3.6-2.8.6-3.1.4s-4.4-2.2-8-1c-.6.2-1.3.6-1.5 1.2-.1 2.4.4 4.7 1.4 6.8.3.6.8.1 2-.1.1 0-1.7 3.8-1.7 4.1-.1.8.4.5.7.2.7-.8 1.3-1.7 1.9-2.6.2-.3 1.2 4.8 1.7 5.5.2.4-3.1-1.3-3.6-1.1-.8.3 1.4 3.2 4.3 2.6 3.4-.7 3.3-2.2 2.8-2.2s-1.3-1-.4-1.4c.7-.3 0-1.6-1-1.4-1.9.4 0 3.2-.4 3-4.5-2.9 0-6.5 1.7-4.4-.6-2.2-.3-4.3.8-6.1zM117.8 46.6c0 .7-.9 1.3-2.2 1.4s-2.3-.4-2.4-1.1.9-1.3 2.2-1.4 2.4.4 2.4 1.1zM105.4 47.8l1 1.5 2.6-2.1-3.1-1.1-.5 1.7z" class="st1"/>
  <path d="m109 47.2-3.6.5m7.4-7.1c.2-1.4-.9-1.4-1.3-1.3-1.4.6-.1 2.9-.1 2.9-4.8-2.3-.1-7.3 1.8-4.1.2.3-1.7-2.3.5-6.4 3.1 3.5 1.9 6.5 2 6.2 1.1-3.5 6.8.2 2.7 3.5 0 0 .7-2.6-.8-2.8-.4-.1-1.5.3-1 1.5m-4.4 1.4c.1.4.5.7.9.7l3.4-.4c.4 0 .7-.4.7-.8-.1-.4-.4-.7-.9-.7l-3.4.4c-.4 0-.7.3-.7.8z" class="st5"/>
  <path d="M104.8 36.2c-4.4-9.9 2-12.3 4.5-12.2 5.2.2 5.1 3.2 11.8 3.5" class="st6"/>
  <path d="M120 24.5c-5.5-.1-4.5-3-10.8-3-4.1-.1-12 2.6-6.7 15.4m21-3.1s-.2-2.9-.5-5.2c-.3-1.8-.9-3.5-1.6-5.2h-2c1.6 3.2 2.5 6.7 2.5 10.3m-16.3 8c.7 1.7 2.4 2.7 4.1 2.5 1.5 0 2.9-.8 3.6-2.1m3.1-.3c1 1 2.3 1.5 3.7 1.3 2.3-.2 3.9-2 3.7-3.9" class="st5"/>
  <path d="M106.3 48.9c0 .3.1 1 .1 1.3" class="st6"/>
  <path d="M105.2 40.3c-.4-1.2 1.6-4.7 1.6-4.7l-4.7 1.4m3.1 3.2c1-.3 2.5-3.1 2.5-3.1l1.8 5.8s-2.8-1.5-3.8-1.2" class="st5"/>
  <path d="m125 43.6-.6-2.2c-.2 1.1-1.8 2.2-3.9 2.6s-4.3-.1-4.7-1.3l-.6 1.8-.9-1.5c-.1 1-1.9 1.8-4 2s-3.8-.4-4.2-1.2l-.5 1.8" class="st7"/>
  <path d="M113.3 46.9c0 .7 1.1 1.2 2.3 1.1s2.3-.7 2.2-1.4-1.1-1.2-2.3-1.1-2.2.7-2.2 1.4zm-7.9.9 1 1.5 2.6-2-3.1-1.2-.5 1.7z" class="st5"/>
  <path d="M105.3 6.5c.2-.7.9-1.1.7-2.3 0-.4-.1-.9-.1-1.1-.1-.5.1-1.1.4-1.6.2-.2.3-1 .4-.6s.4 1 .5 1.4c.2.8.2 1.7-.2 2.5-.1.3-1 1.4-1 2" class="st1"/>
  <defs>
    <path id="SVGID_3_" d="M0 0h250v182.6H0z"/>
  </defs>
  <clipPath id="SVGID_4_">
    <use href="#SVGID_3_" style="overflow:visible"/>
  </clipPath>
  <path d="M102.1 7.1c.4-.6.7-1.3.7-2l-.3-2.3c-.1-.8-.1-1.6.1-2.3 0-.2.4-.9.5-.4.2.8.4 1.6.8 2.3.4.7.4 1.4.1 2.1-.4.8-.7 1.7-1 2.5" class="st1" style="clip-path:url(#SVGID_4_)"/>
  <path d="M99.1 8.7c0-.4.3-4.1-.2-5-.1-.3-1.6-1.6-1.6-1.9-.1-.2-.2-.4-.3-.5-.2-.2.3-.1.6-.2 1.2.1 2.3.8 2.9 1.9.1.7.1 1.5-.1 2.2-.1.3-.1 2-.3 2.6-.1.3-.1.7-.3.9M95.4 11.6c-.3.8 0-3.6-.2-4.5 0-.6-.2-1.2-.4-1.8-.2-.5-.1-.9-.9-1.2-.5-.3-.6-.7-.9-.9s.6-.1.9-.1c1.3 0 2.5.9 2.8 2.1.1.7.1 1.5 0 2.2v.7c0 .2-.2 2.7-.3 3.1-.1.1-.8-.1-1 .4zM93.7 13.9c-.3-1.1-.5-2.2-.7-3.3.1-1.6-.4-6-4.3-5.6-1 .1-1.7.9-1.4 1.1s.3-.7 1.7 0c1.3 1.3 2.3 2.8 2.9 4.5.1.2.7 2.9.8 3.4M91 20.4c-.4-.8-.7-1.6-1-2.4a8.7 8.7 0 0 0-1.6-3c-1.1-.9-1.8-3.8-3.4-4-.4 0-1.8.2-1.3-.1.2-.1 1.5-1.5 3.9-.2 1.9 1.4 3 3.6 3.3 5.9 0 .3.3 2.2.9 2.5M109.1 6.2c1-.4 1.6-1.5 1.5-2.6-.1-.6-.3-1.2-.6-1.7 0-.1-.4.1-.5.4-.3.7-.4 1.5-.3 2.2 0 .2-.9.9-1 1.3" class="st1"/>
  <path d="m105.3 53.5-.7-.7c-3.2-3.2-7.9-12.7-9.1-13-1.8-.4-1.8-1.4-1.8-1.5 0-.2 0-.4-.1-.6-.1-.1.9-1 1.1-.9.4.1.6-.1.5-.3-.9-.9-2.2-5.6-2.7-5.8-1.7-1-1.4-2.3-1.4-2.5s.8-.5 1.1-.7.3-.1.4.1.5.4.4.2c-.4-1.9-.5-3.8-.5-5.7-1.8-.5-1.6-1.3-1.6-1.6 0-.3.1-.5.1-.8.3-.5.5-.6.6-.6.5-.1 1.1.1 1.4.6 0 .1.4.3.4 0 0-.8.1-1.5.2-2.3.1-.2-.2-1.2-.3-1.2-.8-.1-.7-1.2-.7-1.4 0-.4.1-.5.2-.6.2-.2.5-.3.7-.3.7 0 .8 1.5.7 1.7s.2.2.3.3.4.2.4 0c0-.4.8-2.2.7-2.4-.5-1-.5-2.1-.3-2.2.2-.1.4-.2.5-.2.3 0 .2.1.5.2s.3.8.3 1 .1.2.2 0c.3-.6 1.5-1.5 1.5-1.7 0-.5.1-1.2.1-1.3s.2-.3.2-.4 1-.4 1.1 0 0 1.3 0 1.3c.5.2 1.4-.9 1.7-1.1s.2-.9.2-1.5.8-.4 1.3-.4c.3 0 .1 1-.1 1.2-.1.2.8-.1 1.2-.4.4-.3.6-.7.6-1.1.1-.4.7-.2 1.2-.2s0 .8-.2 1 .9-.2 1.4-.5c.3-.2.6-.5.6-.9 0-.3.3-.5.9-.3s0 .7-.1.8 1.2.3 1.4 0c.2-.4.6-.6 1.1-.5.6.2-.2.8.1.8 2.5.3 2.9 1.1 2.1.8-1.6-.6-5.3-.2-6 0-21.9 6.2-9.9 32.4-.8 42.3-.3 0-.6.2-.8.5-.1.5-1 1.5-.7 1.9s.3 1 .2.8M109 6.2" class="st1"/>
  <path d="M81.3 43.2c.1.4.4.7.8.7h.2c-.4 0-.8-.3-1-.7zm5.2 1-.4-.1c.3.1.5.2.8.2.2 0 .3-.1.5-.2-.2.1-.6.2-.9.1zm7.1-8.5c-.6-.1-2.2-1.8-2.6-2.1s.9-1 1.2-1c1.2-.1 1.4 1.4 1.5 1.8-.1.1 0 1.4-.1 1.3zm-1-3.2c-.3-.1-1.6 0-1.8-.1-.7-.2-1.4-.2-2 .1-.5.3-1.6 1-2.1 4 0 .3-.7.3-1.9 2l-.2.2h.1c.4-.7 1.9-2 1.9-1.9-.1.9-.3 1.9-.8 2.7-.1.3-.3.4-.1.3.5-.4 1.6-1.5 2.7-1.8.3-.1-.3.6-.4.8-.7 1.1-1.2 2.4-1.3 3.7.1 1.9 1.2 1.4 1.3 1.4.6-.5 1.4-1.7 1.5-4 .2-3.9 1.3-6.4 1.5-6.2 1.1 1.1 2.1 2.4 2.9 3.8l.8-.7c-.3-.3-.7-3.5-2.1-4.3zm-9.1 11.3c-.2 0-.5.1-.7.2.3-.1.5-.2.7-.2zm-.2-8.3c-.1-.1-.1-.1 0 0l-.2.4.2-.4c-.1.1-.1 0 0 0zm-3 1.9h-.1c.1.5.3.9.6 1.4-.3-.4-.5-.9-.5-1.4zm2.4 1c0 .3-.1.7-.1 1.2.1-.1.1-.8.1-1.2zm.1-.9c0-.3.1-.6.1-.8 0 .3-.1.5-.1.8zM87.7 23.1c-.3-.2.1-1.6.9-2 .1-.1.3-.1.4-.1h-.5c-.6.1-1.1.1-1.7 0-.5-.3-1.2-.2-1.5.2-1.2 1-1.9 2.4-2 4 0 .5 0 1.7-.5 1.1l-.1-.2c.4.5.8 1.1 1 1.7 0-.7.1-1.5.3-2.2.1-.2.5-1.3.5-1.1.1.4.2.8.5 1.1.5.5.6 2 .6 1.7s.9-1 1-1.3.3-1.1.5-1c.2.5.3 1.1.3 1.6 0 1.3-.8 1.7-.9 2.2-.2 1.1 1 .5.9.7-.1.1-.2.2-.4.2.4-.1.7-.4.9-.8.4-1.1.1-5.1 0-5.7-.2 0-.2 0-.2-.1zm-1.2 6.7zm-.1 0zm3.7-8.2c.2.2.3.4.5.7.1.1 1.1 4.1.7 4-1.1-.6-2-1.4-2.8-2.4 0-.1-.1-.2-.2-.3.2.9.6 1.8 1.1 2.5.3.4 1.4 1.8 1.7 2l1.4-.6c0-.2-.8-4.3-2.4-5.9zm-7.6 8c.1.2.3.4.6.4-.3-.1-.5-.2-.6-.4zm2.4.2c-.7 0-1.5.1-1.8.1.7.1 1.3 0 1.8-.1zM105.3 6.6c.2-.8.9-1.2.8-2.4 0-.4 0-.9-.1-1.1-.2-.8.6-2.5.7-2.2s.4 1 .5 1.4c.2.8.2 1.7-.2 2.5-.1.3-1 1.4-1 2M93.7 13.9c-.3-1.1-.5-2.2-.7-3.3.1-1.6-.4-6-4.3-5.6-1 .1-1.7.9-1.4 1.1s.7-.8 1.7 0c2.9 2.4 3.6 7.5 3.7 8M90.9 20.3c-.4-.8-.7-1.5-1-2.4a8.7 8.7 0 0 0-1.6-3c-1.1-.9-1.8-3.8-3.4-4-.4 0-1.8.2-1.3-.1.2-.1 1.5-1.5 3.9-.2 1.9 1.4 3 3.6 3.3 5.9 0 .3.3 2.2.9 2.5" class="st1"/>
  <path d="M92.6 27.9c-.1-.4-1.4-7.2-4.1-6.9h-1.6c-.5-.3-1.2-.2-1.5.2-1.2 1-1.9 2.4-2 4 0 .5 0 1.7-.5 1.1-.3-.3-1.8-1.6-1.2-.6.3.5.5 1.2.6 1.8 0 .5 0 2.5 1 2.5 1.5.1 1.8-.3 3.3-.2.6.1 1.1-.3 1.3-.9.4-1.1.1-5.1 0-5.7 0-.3.5.1.6.3.2.9.6 1.8 1.1 2.7.3.4 1.8 2.1 2 2.4m3 8.2c-.2-.3-.6-3.6-2-4.3-.3-.1-1.6 0-1.8-.1-.7-.2-1.4-.2-2 .1-.5.3-1.6 1-2.1 4 0 .3-.7.2-1.9 1.9-.1.1-.3.7-.5-.2 0-.2-.9-3.4-1.1-3-.2.8-.4 1.6-.4 2.4 0 .6-.1 1 0 1.8 0 .4-.1-.2-1.4-1.5-.2-.3-1.3-1.2-1-.5.2.3.6 1.6.9 2 .2.4.2.7.2 1.1-.1 1-.7 2.9.7 3.2 1.1.2 1.1-.3 2.3-.2 1.8.1 1.6.6 2.5.6.4 0 2.1-.8 2.3-4.4.2-3.9 1.3-6.4 1.5-6.2 1.2 1.2 2.2 2.5 3 4M88 43.8c-1.1.6-1.5-.3-1.4-1.3s.7-3.2 1.2-3.7c1.3-1.2.3-.9-.8-.1-.6.4-1.8 1.8-1.4 1 .5-.9.9-1.8 1-2.9m.9-7.4c-.6.6-1.4 0-1-.6.8-1 1.1-2.3.7-3.5-.2-.5-.4.5-.6.9s-1 .6-1 1.5c0-.6-.2-1.2-.5-1.7-.3-.4-.5-.9-.6-1.4 0-.4-.3.9-.5 1.2-.3.7-.3 1.5-.2 2.3 0 .3-.4-1.3-1-1.9m6.3-5.2c-.3 0-1.6.4-1.2 2.9m2.7-1.9c.7 1.9 1.1 3.9 1.1 5.9m-3.3-4.4c.6 1 2.2 2.8 3.1 2.9m.9 6.2c-.9.1-1.4.8-2 2.2m3.1-1.5c.6 1.1 0 3.6.4 4.1M91 33.5c.8.5 2.2 2.3 2.8 2.2m-7.5-5.8c-.1.2-.1.3 0 .5s.6 1.2.4 1.5c-.1.2-.3.3-.5.2M83 30c-.1.1-.2.3-.1.5 0 .2.1 1.4-.2 1.5-.2.1-.4.1-.6 0m3.5-2.2c0 .2 0 .4.1.6.2.4.3.9.2 1.3-.1.4-.1.4-.4.4M84 30c.2.6.2 1.2.1 1.8-.1.3-.1.5-.4.5m-.3-2.2c.2.6.1 1.2-.1 1.8-.1.3-.2.5-.4.5m1.7-2.5c0 .3.1.7.3 1 .2.4.2.9.1 1.3-.2.5-.1 1.1.1 1.6.3.5.4 2.5-.3 2.1-.3-.1-.3-.4-.3-.7M83.1 44c.1.6-.2 2.5-1 2.4m.2-2.4c.1.5-.2 2-.9 1.8m4.9-1.6c0 .1-.4 2 .8 2.2m-1.8-2.6c0 .1-.2 2.4.8 2.6m-1.9-2.6c0 .1.1 2.8-.8 2.8m1.5-2.8c0 .7 0 1.5.1 2.2.1.3.9 3.7-.3 4.6-.3.2-1.1.5-.6-.9" class="st5"/>
  <path d="M109.1 6.2c1-.4 1.6-1.5 1.5-2.6-.1-.6-.3-1.2-.6-1.7 0-.1-.4.1-.5.4-.3.7-.4 1.5-.3 2.2 0 .2-.9.9-1 1.3" class="st1"/>
  <path d="m125 43.6-.6-2.2c-.2 1.1-1.8 2.2-3.9 2.6s-4.3-.1-4.7-1.3l-.6 1.8-.9-1.5c-.1 1-1.9 1.8-4 2s-3.8-.4-4.2-1.2l-.5 1.8" class="st5"/>
  <path d="M101.2 37c.8-.6.8-1.8.2-2.5-.6-.8-1.8-.8-2.5-.2-.7.6-.8 1.8-.2 2.5.6.8 1.7.9 2.5.2zm0 0c.8-.6.8-1.8.2-2.5-.6-.8-1.8-.8-2.5-.2-.7.6-.8 1.8-.2 2.5.6.8 1.7.9 2.5.2zm-1-3.7c.8-.6.9-1.8.2-2.5s-1.8-.9-2.5-.2-.9 1.8-.2 2.5 1.8.8 2.5.2zm0 0c.8-.6.9-1.8.2-2.5s-1.8-.9-2.5-.2-.9 1.8-.2 2.5 1.8.8 2.5.2zm-.1-4c.8-.6.9-1.8.2-2.5s-1.8-.9-2.5-.2-.8 1.7-.2 2.4c.7.8 1.8.9 2.5.3zm0 0c.8-.6.9-1.8.2-2.5s-1.8-.9-2.5-.2-.8 1.7-.2 2.4c.7.8 1.8.9 2.5.3zm1.2-3.8c.7-.6.8-1.7.2-2.5s-1.7-.8-2.5-.2c-.7.6-.8 1.7-.2 2.5.6.7 1.7.8 2.5.2zm0 0c.7-.6.8-1.7.2-2.5s-1.7-.8-2.5-.2c-.7.6-.8 1.7-.2 2.5.6.7 1.7.8 2.5.2zm2.7-2.9c.8-.6.8-1.8.2-2.5-.6-.8-1.8-.8-2.5-.2-.8.6-.8 1.8-.2 2.5.7.8 1.8.9 2.5.2zm0 0c.8-.6.8-1.8.2-2.5-.6-.8-1.8-.8-2.5-.2-.8.6-.8 1.8-.2 2.5.7.8 1.8.9 2.5.2zm3.7-1.4c.8-.6.8-1.8.2-2.5-.6-.8-1.8-.8-2.5-.2-.8.6-.8 1.8-.2 2.5.6.7 1.7.8 2.5.2zm0 0c.8-.6.8-1.8.2-2.5-.6-.8-1.8-.8-2.5-.2-.8.6-.8 1.8-.2 2.5.6.7 1.7.8 2.5.2zm3.9-.3c.7-.6.8-1.7.2-2.5s-1.7-.8-2.5-.2c-.7.6-.8 1.7-.2 2.5.6.8 1.7.9 2.5.2 0 .1 0 .1 0 0zm0 0c.7-.6.8-1.7.2-2.5s-1.7-.8-2.5-.2c-.7.6-.8 1.7-.2 2.5.6.8 1.7.9 2.5.2 0 .1 0 .1 0 0zm3.9 1c.7-.6.8-1.7.2-2.5s-1.7-.8-2.5-.2c-.7.6-.8 1.7-.2 2.5.6.7 1.7.8 2.5.2zm0 0c.7-.6.8-1.7.2-2.5s-1.7-.8-2.5-.2c-.7.6-.8 1.7-.2 2.5.6.7 1.7.8 2.5.2zm3.5 1.7c.7-.6.8-1.7.2-2.5s-1.7-.8-2.5-.2c-.7.6-.8 1.7-.2 2.5.6.8 1.8.8 2.5.2zm0 0c.7-.6.8-1.7.2-2.5s-1.7-.8-2.5-.2c-.7.6-.8 1.7-.2 2.5.6.8 1.8.8 2.5.2z" class="st6"/>
  <path d="M99.9 33.5c.6-.3 1-1.6 1.1-1s1 2.3.2 1.8-1.5-.7-1.3-.8zM99.4 29.6c.6-.2 1.5-1.3 1.5-.7s.5 2.4-.3 1.8-1.6-.9-1.2-1.1zM99.7 25.9c.6.1 1.9-.4 1.8-.1s-.6 1.8-.8 1.5-1.2-1.4-1-1.4zM101.8 22.8c.5.1 1.8.3 1.6.4s-1.6 1.7-1.5 1.3-.4-1.7-.1-1.7zM104.8 20.7c.5.1.9 1 1.4 1s-1.5.8-1.8 1 .3-2 .4-2zM107.5 21.4c.5-.3.9-1.7 1.3-1.3s1.2 1.5.5 1.4-2.1.1-1.8-.1zM110.8 21.4c.5 0 1.6-1.6 1.6-1.1s.8 1.7.2 1.5-2.2-.3-1.8-.4zM114.2 22.4c.5.1 2.1-1.1 2-.7s.3 2.1-.1 2-2.3-1.4-1.9-1.3zM118.2 24.2c.4-.1 1.2-.9 1.4-.6s.6.9 0 .9-1.7-.3-1.4-.3zM130.6 23.5c.6.1 1.3.6.9.8s-1.7.4-1.5.1.4-.9.6-.9zM134 21.6c.6.4 2 .8 1.5 1.1s-2.2 1.5-2 1c.1-.7.3-1.4.5-2.1zM137.1 21.8c.2-.5.3-2.1.7-1.6s1.4 1.3.7 1.4-1.5.4-1.4.2zM140.3 21.4c.4-.2 1.1-1.8 1.4-1.1s.9 1.3.4 1.2-2.1 0-1.8-.1zM143.6 21.7c.5-.1 1.8-1.4 1.8-.6s.4 1.5-.2 1.3-2-.7-1.6-.7zM146.5 23.2c.5.2 2-.6 1.8-.1s-.1 1.6-.6 1.3-1.4-1.3-1.2-1.2zM148.6 25.6c.5.1 1.9.3 1.5.7s-.9 1.4-1.1 1.1-.6-1.9-.4-1.8zM149.3 28.9c.4.3 1.9.8 1.1 1.1s-1.4 1.2-1.2.7 0-1.8.1-1.8zM149 32.3c.3.5 1.5 1.5 1 1.5s-1.7 1.1-1.6.6l.6-2.1z" class="st1"/>
  <defs>
    <path id="SVGID_5_" d="M0 0h250v182.6H0z"/>
  </defs>
  <clipPath id="SVGID_6_">
    <use href="#SVGID_5_" style="overflow:visible"/>
  </clipPath>
  <g style="clip-path:url(#SVGID_6_)">
    <path d="M144.7 6.6c-.2-.7-.9-1.2-.8-2.4 0-.4.1-.9.1-1.1.1-.5-.1-1.1-.4-1.6-.2-.2-.3-1-.4-.6s-.4 1-.5 1.4c-.2.8-.2 1.7.2 2.5.1.3 1 1.4 1 2M147.9 7.1c-.1-.4-.7-.7-.7-1.9l.3-2.3c.1-.8.1-1.6-.1-2.3 0-.2-.4-.9-.5-.4-.2.8-.4 1.6-.8 2.3-.4.7-.4 1.4-.1 2.1.4.8.7 1.6 1 2.5" class="st1"/>
  </g>
  <path d="M150.9 8.6c0-.4-.3-4 .2-4.9.1-.3 1.6-1.6 1.6-1.9 0-.2.2-.4.3-.5.2-.2-.3-.1-.6-.2-1.2.1-2.3.8-2.9 1.9-.1.7-.1 1.5.1 2.2.1.3.1 2 .3 2.6.1.3.2.8.3 1M154.6 11.6c.3.8 0-3.5.1-4.5 0-.6.2-1.2.4-1.8.2-.5.1-.9.9-1.2.5-.3.6-.7.9-.9s-.6-.1-.9-.1c-1.3 0-2.5.9-2.8 2.1-.1.7-.1 1.5 0 2.2v.7c0 .2.2 2.6.3 3 .2.1.9-.1 1.1.5zM156.3 13.9c.3-1.1.5-2.2.7-3.3-.1-1.6.4-6 4.3-5.6 1 .1 1.7.9 1.4 1.1s-.3-.7-1.7 0c-1.3 1.3-2.3 2.8-2.9 4.5-.1.2-.7 3-.8 3.5M159 20.4c.4-.8.7-1.6 1-2.4.3-1.1.9-2.1 1.6-3 1.1-.9 1.8-3.8 3.4-4 .4 0 1.8.2 1.3-.1-.2-.1-1.5-1.5-3.9-.2-1.9 1.4-3 3.6-3.3 5.9 0 .3-.3 2.2-.9 2.5M140.9 6.2c-1-.4-1.6-1.5-1.5-2.6.1-.6.3-1.2.6-1.7 0-.1.4.1.5.4.3.7.4 1.5.3 2.2 0 .2.9.9 1 1.3M167.6 44h.2c.4 0 .7-.3.8-.7-.1.4-.5.7-1 .7zm-5.1.1c.1.1.3.2.5.2.3 0 .6 0 .8-.2l-.4.1c-.3.1-.6.1-.9-.1zm7.3-6.6c0-.1 0-.1-.1 0-.1.5-.2 1-.5 1.4.3-.4.4-.9.6-1.4zm-2.7 6.5c-.2-.1-.4-.1-.7-.2.3.1.5.1.7.2zm.1-6.4c0-.3-.1-.6-.1-.8 0 .2.1.5.1.8zm.1 2v-1.2 1.2zm-.5-4 .1.3-.1-.3c0-.1 0-.1 0 0-.2-.1-.1-.1 0 0zm-7.7-2c-.5.3-2.1 2.1-2.7 2.1-.1 0 0-1.3 0-1.4.1-.4.3-1.9 1.5-1.8.3.1 1.7.8 1.2 1.1zm4.2 3c-.6-3.1-1.6-3.8-2.1-4-.6-.3-1.3-.3-2-.1-.2.1-1.5-.1-1.8.1-1.3.7-1.7 3.9-1.9 4.2l.8.7c.8-1.4 1.8-2.7 2.9-3.8.2-.1 1.3 2.4 1.5 6.2.1 2.4.9 3.5 1.5 4 .1 0 1.2.5 1.3-1.4-.1-1.3-.6-2.6-1.3-3.7-.1-.1-.7-.9-.4-.8 1.1.2 2.2 1.4 2.7 1.8.2.1 0 0-.1-.3-.5-.8-.8-1.7-.8-2.7 0-.2 1.4 1.2 1.9 1.9 0 0 .1.1.1 0l-.2-.2c-1.4-1.6-2-1.6-2.1-1.9zM166.8 30c-.3 0-1-.1-1.8-.1.6.1 1.2.1 1.8.1zm.1 0c.2 0 .5-.2.6-.4-.2.2-.4.4-.6.4zm-3.4-.2zm.1 0zm2-5.2c0-.2.3.9.5 1.1.2.7.3 1.4.3 2.2.2-.6.6-1.2 1-1.7l-.1.2c-.5.6-.5-.6-.5-1.1-.1-1.6-.8-3-2-4-.4-.5-1-.6-1.5-.2-.6.1-1.1.1-1.7 0h-.5c.1 0 .3 0 .4.1.8.5 1.2 1.9.9 2v.1c-.1.7-.4 4.6 0 5.7.1.4.4.7.9.8-.1 0-.3-.1-.4-.2-.2-.2 1.1.4.9-.7-.1-.5-.9-.9-.9-2.2 0-.5.2-1.1.3-1.6.2 0 .4.8.5 1s1 .8 1 1.3.1-1.2.6-1.7c.1-.3.3-.7.3-1.1zm-6.9 1.7c-.3.1.7-3.9.7-4 .1-.3.3-.5.5-.8-1.6 1.5-2.4 5.6-2.5 5.9l1.4.7c.3-.3 1.4-1.6 1.7-2 .5-.8.9-1.6 1.1-2.5-.1.1-.1.2-.2.3-.7 1-1.7 1.8-2.7 2.4z" class="st1"/>
  <path d="M144.5 53.4c.3-.2.6-.4.8-.7 3.2-3.2 7.9-12.7 9.1-13 1.8-.4 1.8-1.4 1.8-1.5 0-.2.1-.4.1-.6.1-.1-.9-1-1.1-.9-.4.1-.6-.1-.5-.3.9-.9 2.2-5.6 2.7-5.8 1.7-1 1.4-2.3 1.4-2.5s-.8-.5-1.1-.7-.3-.1-.4.1-.5.4-.4.2c.4-1.9.5-3.8.5-5.7 1.8-.5 1.6-1.3 1.6-1.6s0-1.4-.9-1.4-1.2.5-1.3.6-.4.3-.4 0c0-.8-.1-1.5-.2-2.3-.1-.2.2-1.2.3-1.2.8-.1.7-1.2.7-1.4 0-.4-.1-.5-.2-.6-.2-.2-.5-.3-.7-.3-.7 0-.8 1.5-.7 1.7s-.2.2-.3.3-.4.2-.4 0c0-.4-.8-2.2-.7-2.4.5-1 .5-1.3.5-1.6s-.2-1.2-1.1-.7c-.3.1-.4.9-.4 1s-.1.2-.2 0c-.3-.6-1.5-1.5-1.5-1.7V9.3c0-.2 0-.4-.1-.6-.3-.3-.8-.4-1.1-.1-.1 0-.1.1-.1.1-.1.3 0 1.2 0 1.2-.5.2-1.4-.9-1.7-1.1s-.2-.9-.2-1.5-.8-.4-1.3-.4c-.3 0-.1 1 .1 1.2.1.2-.8-.1-1.2-.4-.4-.3-.6-.7-.6-1.1-.1-.4-.7-.2-1.2-.2-.3 0 0 .8.2 1s-.9-.2-1.4-.5c-.3-.2-.6-.5-.6-.9 0-.3-.3-.5-.9-.3s0 .7.1.8-1.2.3-1.4 0c-.2-.4-.6-.6-1.1-.5-.6.2.2.8-.1.8-2.5.3-2.9 1.1-2.1.8 1.6-.6 5.3-.2 6 0 22.1 6.2 9.8 32.6.7 42.5 0 0 .2.1.3.1.4 0 .7.3.8.6.3.6.4 1.3.2 2v.2" class="st1"/>
  <path d="M157.4 28c.1-.3 1.4-7.3 4.1-7 .6.1 1.1.1 1.7 0 .5-.3 1.2-.2 1.5.2 1.2 1 2 2.4 2 4 0 .5 0 1.7.5 1.1.3-.3 1.8-1.6 1.2-.6-.3.5-.5 1.2-.5 1.8 0 .5 0 2.5-1 2.5-1.5.1-1.8-.3-3.3-.2-.6.1-1.1-.3-1.3-.9-.4-1.1-.1-5.1 0-5.7 0-.3-.5.1-.6.3-.2.9-.6 1.8-1.1 2.7-.3.4-1.6 1.9-1.8 2.2m-3.5 8.6c.4-.4.7-3.8 2-4.5.3-.1 1.6 0 1.8-.1.7-.2 1.4-.2 2 .1.5.3 1.6 1 2.1 4 0 .3.7.2 1.9 1.9.1.1.3.7.5-.2 0-.2.9-3.4 1.1-3 .2.8.4 1.6.5 2.4 0 .6.1 1 0 1.8 0 .4.1-.2 1.4-1.5.2-.3 1.3-1.2 1-.5-.1.3-.6 1.6-.9 2-.2.4-.2.7-.2 1.1.1 1 .7 2.9-.7 3.2-1.1.2-1.1-.3-2.3-.2-1.8.1-1.6.6-2.5.6-.3 0-2.1-.8-2.3-4.4-.2-3.9-1.3-6.4-1.5-6.2-1.2 1.2-2.2 2.6-3.1 4.1m5.9 6.2c1.1.6 1.5-.3 1.4-1.3s-.7-3.2-1.2-3.7c-1.3-1.2-.3-.9.8-.1.6.4 1.8 1.8 1.4 1-.6-.9-.9-1.8-1-2.9m-.9-7.4c.6.6 1.4 0 1-.6-.8-1-1.1-2.3-.7-3.5.2-.5.4.5.6.9s1 .6 1 1.5c0-.6.2-1.2.5-1.7.3-.4.5-.9.6-1.4 0-.4.3.9.5 1.2.3.7.3 1.5.2 2.3 0 .3.4-1.3 1-1.9m-6.4-5.2c.3 0 1.6.4 1.2 2.9m-2.6-1.9c-.7 1.9-1.1 3.9-1.1 5.9m3.3-4.4c-.6 1-2.2 2.8-3.1 2.9m-.9 6.1c.9.1 1.4.8 2 2.2m-3.1-1.4c-.6 1.1 0 3.6-.4 4.1m2.9-3.9c-.8.5-2.2 2.3-2.8 2.2m7.5-5.8c.1.2.1.3 0 .5s-.6 1.2-.4 1.5c.1.2.3.3.5.2M167 30c.1.1.1.3.1.5s-.1 1.4.2 1.5c.2.1.4.1.6 0m-3.5-2.2c0 .2 0 .4-.1.6-.2.4-.3.9-.2 1.3.1.4.1.4.4.4m1.4-2.1c-.2.6-.2 1.2-.1 1.8.1.3.1.5.4.5m.4-2.2c-.2.6-.1 1.2.1 1.8.1.3.2.5.4.5m-1.8-2.5c0 .3-.1.7-.3 1-.2.4-.2.9-.1 1.3.2.5.1 1.1-.1 1.6-.3.5-.4 2.5.3 2.1.3-.1.3-.4.3-.7m1.4 8.7c-.1.6.2 2.5 1 2.4m-.2-2.3c-.1.5.3 2 1 1.8m-5-1.6c0 .1.4 2-.8 2.2m1.8-2.6c0 .1.2 2.4-.8 2.6m2-2.6c0 .1-.1 2.8.8 2.8m-1.5-2.8c0 .7 0 1.5-.1 2.2-.1.3-.9 3.7.3 4.6.3.2 1.1.5.6-.9" class="st5"/>
  <path d="M132.1 46.6c0 .7.9 1.3 2.2 1.4s2.3-.4 2.4-1.1-.9-1.3-2.2-1.4-2.3.4-2.4 1.1zM128.1 47h-6.3v-2.3h6.3V47zM144.6 47.8l-1 1.5-2.6-2.1 3.1-1.1.5 1.7z" class="st1"/>
  <path d="m141 47.2 3.6.5m-7.4-7.1c-.2-1.4.9-1.4 1.3-1.3 1.4.6.1 2.9.1 2.9 4.8-2.3.1-7.3-1.8-4.1-.2.3 1.7-2.3-.4-6.4-3.1 3.5-1.9 6.5-2 6.2-1.1-3.5-6.8.2-2.7 3.5 0 0-.7-2.6.8-2.8.4-.1 1.5.3 1 1.5m4.3 1.4c-.1.4-.5.7-.9.7l-3.4-.4c-.4 0-.8-.4-.7-.9.1-.4.5-.7.9-.7l3.4.4c.4.1.7.4.7.9z" class="st5"/>
  <path d="M145.2 36.2c4.4-9.9-2-12.3-4.5-12.2-5.2.2-5.1 3.2-11.8 3.5" class="st6"/>
  <path d="M130 24.5c5.5-.1 4.5-3 10.8-3 4.1-.1 12 2.6 6.7 15.4" class="st5"/>
  <path d="M124.4 12.6c-.4-1-.9-2-1.5-2.9h4.3c-.6.9-1.1 1.9-1.5 2.9m-1.5 2.6c-.5 1.5-1.2 3-2.1 4.3m5.9 0c-.9-1.4-1.6-2.8-2.1-4.4m-2.2-.5c-1 .4-2 .9-2.9 1.5v-4.3c.9.6 1.9 1.1 2.9 1.5m2.7 1.3c1 .4 1.9.9 2.8 1.5v-4.3c-.9.6-1.9 1.1-2.9 1.5m-2.4 12c-2-.6-3-2.7-2.4-4.7s2.7-3 4.7-2.4 3 2.7 2.4 4.7a3.6 3.6 0 0 1-2.4 2.4m-4.8-2.8h7.3m-4.7-4.3v2.6h-2.6m4.6-2.6v2.6h2.6" class="st6"/>
  <path d="M124 37.5c-.3-1.3-2.9-3.8-2.9-3.8h7.9s-2.5 2.4-2.9 3.7m-.1.3c1 0 3.3-2.3 3.3-2.3v6.1s-2.3-2.3-3.3-2.3m-2-1.5c-1 0-3.3-2.3-3.3-2.3v6.1s2.3-2.3 3.3-2.3m2.4-5.5s.2-2.9.5-5.2c.3-1.8.9-3.5 1.6-5.2h2c-.8 1.7-1.4 3.4-1.9 5.2a46 46 0 0 0-.6 5.2m16.4 8c-.7 1.7-2.4 2.7-4.1 2.5-1.5 0-2.9-.8-3.6-2.2m-3.1-.3c-1 1-2.3 1.5-3.7 1.3-2.3-.2-3.9-2-3.7-3.9m19.1 3.5c-.5 1.2-.9 2.4-1.2 3.6m.7-6c.4-1.2-1.6-4.7-1.6-4.7l4.7 1.4c-.5 1.1-1 2.1-1.5 3.2m-1.6.2c0-.1 0-.1 0 0-1.1-.4-2.6-3.2-2.6-3.2l-1.8 5.8s2.8-1.5 3.8-1.2c.1 0 .1 0 .1-.1m-7.6 5.2c0 .7-1.1 1.2-2.3 1.1s-2.3-.7-2.2-1.4 1.1-1.2 2.3-1.1 2.2.8 2.2 1.4zm-8.6.2h-6.3v-2.3h6.3V47zm16.5.7-1 1.5-2.6-2 3.1-1.2.5 1.7z" class="st5"/>
  <path d="m105.7 45.6.5-1.8c.4.9 2.1 1.4 4.2 1.2s3.9-1 4-2l.9 1.5.6-1.8c.4 1.1 2.4 1.7 4.7 1.3s3.7-1.5 3.9-2.6l.6 2.2.6-2.2c.2 1.1 1.8 2.2 3.9 2.6 2.3.4 4.3-.1 4.7-1.3l.5 1.8.9-1.5c.1 1 1.9 1.8 4 2s3.8-.4 4.2-1.2l.5 1.8" class="st7"/>
  <path d="M124.1 15c-.6-.5-.6-1.4-.1-2 .5-.6 1.4-.6 2-.1.6.5.6 1.3.2 1.9-.6.7-1.4.8-2.1.2.1.1 0 .1 0 0zm0 0c-.6-.5-.6-1.4-.1-2 .5-.6 1.4-.6 2-.1.6.5.6 1.3.2 1.9-.6.7-1.4.8-2.1.2.1.1 0 .1 0 0zm24.7 22c-.7-.7-.8-1.8-.1-2.5.6-.7 1.7-.8 2.4-.2.8.6.9 1.7.3 2.5s-1.7.9-2.5.3c0 0-.1 0-.1-.1zm0 0c-.7-.7-.8-1.8-.1-2.5.6-.7 1.7-.8 2.4-.2.8.6.9 1.7.3 2.5s-1.7.9-2.5.3c0 0-.1 0-.1-.1zm.9-3.7c-.7-.6-.8-1.7-.2-2.5s1.7-.8 2.5-.2c.7.6.8 1.7.2 2.5-.6.7-1.7.8-2.5.2zm0 0c-.7-.6-.8-1.7-.2-2.5s1.7-.8 2.5-.2c.7.6.8 1.7.2 2.5-.6.7-1.7.8-2.5.2zm.1-4c-.7-.6-.8-1.7-.2-2.5s1.7-.8 2.5-.2c.7.6.8 1.7.2 2.5-.6.7-1.7.8-2.5.2zm0 0c-.7-.6-.8-1.7-.2-2.5s1.7-.8 2.5-.2c.7.6.8 1.7.2 2.5-.6.7-1.7.8-2.5.2zm-1.1-3.8c-.7-.6-.8-1.7-.2-2.5s1.7-.8 2.5-.2c.7.6.8 1.7.2 2.5-.6.7-1.7.8-2.5.2zm0 0c-.7-.6-.8-1.7-.2-2.5s1.7-.8 2.5-.2c.7.6.8 1.7.2 2.5-.6.7-1.7.8-2.5.2zm-2.7-2.8c-.8-.6-.9-1.8-.2-2.5s1.8-.9 2.5-.2.9 1.8.2 2.5c-.6.7-1.7.8-2.5.2zm0 0c-.8-.6-.9-1.8-.2-2.5s1.8-.9 2.5-.2.9 1.8.2 2.5c-.6.7-1.7.8-2.5.2zm-3.7-1.5c-.8-.6-.8-1.8-.2-2.5.6-.8 1.8-.8 2.5-.2.8.6.8 1.8.2 2.5-.6.7-1.7.8-2.5.2zm0 0c-.8-.6-.8-1.8-.2-2.5.6-.8 1.8-.8 2.5-.2.8.6.8 1.8.2 2.5-.6.7-1.7.8-2.5.2zm-7.7.7c-.7-.6-.8-1.7-.2-2.5s1.7-.8 2.5-.2c.7.6.8 1.7.2 2.5-.7.7-1.8.8-2.5.2zm0 0c-.7-.6-.8-1.7-.2-2.5s1.7-.8 2.5-.2c.7.6.8 1.7.2 2.5-.7.7-1.8.8-2.5.2zm-3.6 1.8c-.7-.6-.8-1.7-.2-2.5s1.7-.8 2.5-.2c.7.6.8 1.7.2 2.5-.6.7-1.8.8-2.5.2zm0 0c-.7-.6-.8-1.7-.2-2.5s1.7-.8 2.5-.2c.7.6.8 1.7.2 2.5-.6.7-1.8.8-2.5.2z" class="st6"/>
  <path d="M144.4 41.2c0-.7.5-1.3 1.2-1.4.6 0 1 .6.9 1.4 0 .7-.5 1.3-1.2 1.4-.6 0-1-.6-.9-1.4zm0 0c0-.7.5-1.3 1.2-1.4.6 0 1 .6.9 1.4 0 .7-.5 1.3-1.2 1.4-.6 0-1-.6-.9-1.4zm-20.4-16c-.6-.5-.6-1.4-.1-2 .5-.6 1.4-.6 2-.1.5.5.6 1.4.1 1.9l-.1.1m-1.9 2.1a1.42 1.42 0 0 1 2-2c.5.5.6 1.3.1 1.9l-.1.1m-2.1 2c-.6-.5-.6-1.4-.1-2 .5-.6 1.4-.6 2-.1.5.5.6 1.4.1 1.9l-.1.1m-2 2.1c-.6-.5-.6-1.4 0-2 .5-.6 1.4-.6 2 0 .5.5.6 1.4.1 1.9l-.1.1m-1.9 2.1c-.6-.5-.6-1.4-.1-2 .5-.6 1.4-.6 2-.1.6.5.6 1.3.2 1.9-.6.7-1.5.8-2.1.2 0 .1 0 0 0 0zm0 0c-.6-.5-.6-1.4-.1-2 .5-.6 1.4-.6 2-.1.6.5.6 1.3.2 1.9-.6.7-1.5.8-2.1.2 0 .1 0 0 0 0zm0 6.2c-.6-.5-.6-1.4-.1-2 .5-.6 1.4-.6 2-.1.6.5.6 1.3.2 1.9-.6.6-1.5.7-2.1.2zm0 0c-.6-.5-.6-1.4-.1-2 .5-.6 1.4-.6 2-.1.6.5.6 1.3.2 1.9-.6.6-1.5.7-2.1.2z" class="st5"/>
  <path d="M138.4 21c-.7-.6-.8-1.7-.2-2.5s1.7-.8 2.5-.2c.7.6.8 1.7.2 2.5-.6.7-1.8.8-2.5.2zm0 0c-.7-.6-.8-1.7-.2-2.5s1.7-.8 2.5-.2c.7.6.8 1.7.2 2.5-.6.7-1.8.8-2.5.2z" class="st6"/>
  <path d="M105.9 53.6c-.7-.6-.8-1-.5-2 .1-.4 1-1.5 1.5-1.5h.9c.3.1.5-.4 1.5-.1l.4.2c.1 0 1-.8 2-.5.1 0 .3.1.4.2.5-.3 1.2-.5 1.9-.4.2 0 .3.1.5.1.5-.3 1.2-.4 1.8-.3.2 0 .3.1.5.2.5-.3 1.2-.4 1.8-.3.2.1.3.1.4.2.6-.3 1.2-.4 1.8-.3.1 0 .3.1.4.2.6-.2 1.2-.3 1.8-.2.2.1.4.1.5.2.5-.3 1.2-.4 1.8-.3.2.1.3.1.5.2.6-.3 1.2-.4 1.9-.2.1 0 .3.1.4.2.6-.3 1.3-.3 1.9-.1.1 0 .2.1.3.2.6-.2 1.3-.3 1.9-.1.1.1.3.1.4.2.6-.3 1.2-.3 1.8-.1.1.1.2.1.3.2.6-.3 1.2-.3 1.8-.1.1.1.3.2.4.3.6-.2 1.2-.2 1.8 0 .1 0 .3.2.4.2.6-.3 1.3-.3 1.9 0l.4.2c.6-.3 1.4-.3 2 0 .1.1.3.2.4.3.1.1.4 0 .7.3.6.9.7 2 .4 2.9" class="st5"/>
  <path d="M138.3 54.1c1.1-.8 2.5-.9 3.7-.5.5.2 1.1.2 1.7.1.2 0 2.3-.7 3.5.1 1.2.8 2 2.1 2.2 3.5 0 .4-.1.8-.1 1.3 0 .1-8.3-.6-8.3-.7s-.9-1.6-1-1.8c-.4-.7-.9-1.3-1.5-1.8l-.2-.2zM122.6 53.7c1.2-.6 2.6-.6 3.8-.2.4.1.8 0 1.3-.1 1.2-.3 2.5-.1 3.5.5.7.5 1.2 1.2 1.6 1.9.1.1.8 1.5.9 1.5s-8.8-.1-8.9-.2c-.2-.4-.3-.7-.4-1.1-.3-.8-.7-1.4-1.3-2-.1 0-.5-.3-.5-.3zM106.5 54c1.2-.7 2.6-.9 3.9-.4.4 0 .7 0 1.1-.1 1-.3 2.1-.3 3.1.2.9.5 1.6 1.2 2 2.1.1.1.7 1.4.8 1.5s-8.6.4-8.6.4c-.3-.9-.7-1.8-1.3-2.6-.2-.4-.5-.7-.9-1l-.1-.1z" class="st1"/>
  <path d="M108.7 57.6c.1 0 7.2-.4 8.6-.4.5.9 1.2 1.6 2.1 2.2-1 .7-2.3.9-3.5.5-.8-.3-1.6-.3-2.4 0-1.1.5-2.3.4-3.2-.4-.5-.4-1-1-1.3-1.5-.1-.1-.2-.3-.3-.4zM124.7 57.2s6.7 0 8.9.2c.5.8 1.1 1.5 1.8 2.1-1.1.7-2.5.9-3.7.4-.7-.3-1.5-.4-2.3-.2-1.3.3-2.6-.1-3.6-.9-.4-.4-.7-.8-.9-1.3-.1-.1-.1-.2-.2-.3zM140.9 57.8c.1 0 5.5.4 8.3.7.1 0-.6 2-2.2 1.8-.9-.3-1.8-.3-2.7-.1-.7.2-1.5 0-2.1-.5-.4-.4-.7-.8-.9-1.3-.2-.2-.4-.6-.4-.6z" class="st1"/>
  <path d="M110.4 59.7c-1.1.6-2.3.7-3.5.4-1.3-.3-2.9 1.5-5-.6s-.6-6 3-6c.1 0 2.1-.3 3.5 3.5.1.3 1.7 4.5 5.2 2.8.2-.1.7-.3 2.2.1 1.2.3 2.5.1 3.6-.5M106.5 54c1.2-.7 2.6-.9 3.9-.4.4 0 .8 0 1.2-.1 1.6-.5 3.3 0 4.3 1.4 1.1 1.3 1.2 3 3.4 4.5.9.5 1.9.6 2.9.2.4-.1.9-.1 1.4 0 1 .2 2 .1 3-.2m-12.1-5.7c.3 0 .4.2 1.6-.4.9-.4 1.8-.3 2.6.1.4.1.9.1 1.3-.1.2 0 2.9-.7 4.2 2.8.1.3.8 3.5 3.6 3.7 1.5.1 2.3-.5 3.8.1.3.1 2.4.7 3.8-.4m-12.8-5.8c1.1-.5 2.4-.6 3.6-.2.5.1 1.1.1 1.6-.1 1.7-.4 3.4.2 4.4 1.6 1.3 1.8 2.3 5.3 5.2 4.9.8-.1 1.5-.1 2.3.2.9.4 2 .3 2.9-.1m-11.5-6.1c.1-.1 1.3-1.1 3.8-.1 1 .4 2.4-.6 3.6.4 2.2 1.8 2.6 5.9 5 6 1.1-.2 2.3-.2 3.4 0 2 .6 4-3.2.7-6.2-.4-.4-1.3-1.1-3.8-.4-.7.2-1.5.1-2.2-.2-1.1-.3-2.3-.1-3.3.6" class="st6"/>
  <path d="M102.1 55.5c-.5 1.7.4 3.4 2 4.1a7.4 7.4 0 0 1-.2-3.3c1 1.5 2.7 2.4 4.4 2.4-.5-.3-.8-.8-1-1.4a8.5 8.5 0 0 0-2.7-3.5c.6.6 1 1.4 1.2 2.3.1.3.2.7.4 1-1-.3-1.9-.9-2.6-1.7-.2.8-.3 1.7-.2 2.6-.6-.6-1.1-1.3-1.2-2.1-.1-.2-.1-.2-.1-.4zM116.5 54.3c1.6.4 2.4 2.2 3.3 2.7-.5-.8-.8-1.8-.8-2.8.9.5 1.7 1.1 2.5 1.8.1.1 1.2 1.1 1.4.9-.4-1.1-1.1-2.1-1.9-3-.1-.1 1.1.1 3.2 3.5.2.4.5.7.8 1.1 0 0-2.5.1-5-2.8.4 1.1 1 2.2 1.9 3 .1.1-2.1.1-3.8-2.6-.3-.6-.7-1.1-1.2-1.6-.2 0-.3-.1-.4-.2zM132.7 54.5c1.5.5 2.3 2.3 3.2 3.2.1.1-.8-.8-.4-2.9.5.7 1.1 1.4 1.7 2 .1.1 1.4 1.1 1.6 1-.3-1.1-.8-2.2-1.6-3.1-.1-.1 1.1.2 2.9 3.5.3.4.6.8 1 1.1 0 0-2.3.6-5-3.1.2 1.1.7 2.1 1.5 3 .1.1-2.1.1-3.6-2.8-.2-.6-.6-1.2-1-1.6-.1-.2-.1-.2-.3-.3zM122.1 51.4c1.5.1 1.5.9 3.5.9 1 0 1.8-.3 1.6-.3-1 .2-1.9 0-2.8-.4-.1 0 1.8 0 2.7-.2-.9-.2-2.8-.1-2.7-.2.8-.5 1.8-.6 2.8-.4.3 0-.5-.3-1.6-.3-2 0-2 .8-3.5.9zM130.1 51.4c1.5.2 1.5 1 3.5 1.1 1 .1 1.8-.2 1.6-.2-1 .1-1.9-.1-2.8-.6-.1 0 1.8.1 2.7 0-.9-.2-2.7-.3-2.7-.4.9-.4 1.9-.5 2.8-.2.3 0-.5-.4-1.5-.4-2-.1-2.1.6-3.6.6v.1zM137.4 51.7c1.5.3 1.5 1 3.4 1.2 1 .1 1.8-.2 1.6-.2-1 .1-1.9-.1-2.7-.7-.1-.1 1.8.1 2.7.1-.9-.2-2.7-.4-2.7-.4.9-.4 1.9-.5 2.8-.2.3 0-.5-.4-1.5-.5-2-.1-2.1.6-3.6.7zM114.5 51.7c1.5 0 1.6.7 3.6.6 1-.1 1.8-.5 1.5-.4-.9.3-1.9.2-2.8-.2-.1 0 1.8-.1 2.7-.4-.9-.1-2.8.1-2.7 0 .8-.5 1.8-.7 2.8-.6.3 0-.5-.3-1.6-.2-2 .2-2 .9-3.5 1.1v.1zM107.3 52.1c1.5 0 1.6.7 3.6.6 1-.1 1.8-.5 1.5-.5-.9.3-1.9.2-2.8-.2-.1 0 1.8-.2 2.7-.4-.9-.1-2.8.1-2.7.1.8-.6 1.8-.8 2.7-.7.3 0-.5-.3-1.6-.2-2 .2-2 1-3.4 1.3z" class="st1"/>
  <path d="M104.6 42.6c.5 1.3.9 2.6 1.3 4m-3.9-9.8 1.6 3.5" class="st6"/>
  <path d="M101.6 36.6c.4-.3.3-.9.6-.5.6.7-.4.9-.6.8s0-.2 0-.3zM148.3 36.6c-.4-.3-.3-.9-.6-.5-.6.7.4.9.6.8s.1-.2 0-.3z" class="st1"/>
  <path d="M105.6 41.2c0-.7-.5-1.3-1.2-1.4-.6 0-1 .6-.9 1.4 0 .7.5 1.3 1.2 1.4.6 0 1-.6.9-1.4z" class="st5"/>
  <path d="M103.8 40c-.4.3-.6.7-.4 1.5s.7 1.3 1.3 1.3m39 6.1c0 .3-.1 1.4-.1 1.7m1.8-8c-.5 1.3-.9 2.6-1.3 4m3.8-9.8c-.5 1.1-1 2.2-1.6 3.4m-.1-.2c.4.3.6.7.4 1.5s-.7 1.3-1.3 1.3" class="st6"/>
  <path d="M144.4 41.2c0-.7.5-1.3 1.2-1.4.6 0 1 .6.9 1.4 0 .7-.5 1.3-1.2 1.4-.6 0-1-.6-.9-1.4zm-16-11.3c1.5-1.3 3.6-1.9 5.6-1.6 3.3.6 2.8.6 3.1.4 2.1-1.2 4.6-1.7 7-1.2.6.1 2.4.9 2.5 1.5m-24.9.9a7.02 7.02 0 0 0-5.7-1.6c-3.3.6-2.8.6-3.1.4-2.1-1.2-4.6-1.7-7-1.2-.6.1-2.4.9-2.5 1.5" class="st5"/>
</svg>